<svg id="Layer_1" data-name="Layer 1" xmlns="http://www.w3.org/2000/svg" viewBox="0 0 334.18 200.16">
  <g>
    <path d="M417.5,402.14l12-50.94c1.65-7,3.25-14,5-21,1.22-5,2.11-5.73,7.33-5.9,3-.09,5.95.12,8.91,0,3.38-.09,5.06,1.68,5.78,4.76,2,8.36,4,16.71,5.94,25.07q5.43,23,10.82,46.1a4.6,4.6,0,0,0,1.33,2.39L480.68,379q6.29-24.37,12.6-48.73c1.32-5.06,2.37-5.83,7.66-6,2.68-.08,5.35-.07,8,0,3.94.08,4.87,1.26,3.79,5.26-1.22,4.48-2.66,8.89-4,13.32q-11.55,37.05-23.12,74.08c-1.65,5.28-2.63,6-8.29,6-2.77,0-5.55,0-8.32,0-4.12-.11-5.2-.94-6.17-4.94q-7.14-29.35-14.19-58.71c-1-4.12-2-8.25-3.43-12.41-1.56,6.43-3.15,12.86-4.68,19.3-4.06,17-8.06,34-12.16,51-1.19,4.95-2.29,5.68-7.44,5.7-2.87,0-5.75,0-8.62,0-4,0-5.29-.88-6.5-4.71-2.52-8-4.92-16.05-7.36-24.08q-9.51-31.31-19-62.63c-.25-.85-.49-1.7-.69-2.57-.8-3.36,0-4.48,3.31-4.55s6.93.13,10.4,0,5.09,1.59,5.87,4.66c1.72,6.7,3.5,13.37,5.21,20.07q6.74,26.52,13.43,53.05Z" transform="translate(-273.84 -321.4)"/>
    <path d="M440.44,521.56c-56.88-.9-108.11-17.95-153.06-53.1-3.82-3-7.46-6.2-11.15-9.36-1.52-1.3-3.29-2.89-1.86-5,1.55-2.29,3.7-1.11,5.54-.06A324.16,324.16,0,0,0,350.81,484a339.54,339.54,0,0,0,62.5,11.92,310,310,0,0,0,49.5,1,332.07,332.07,0,0,0,106.41-24.61c4.61-1.91,7.41-1.47,8.92,1.3,1.36,2.49.31,4.61-3.88,7.59-22.84,16.21-48.33,26.4-75.39,32.95a237.65,237.65,0,0,1-46.59,6.72C448.33,521,444.39,521.31,440.44,521.56Z" transform="translate(-273.84 -321.4)"/>
    <path d="M349.78,367.34c-.51-6-.44-12.08-1.64-17.9-1.62-7.79-7.72-11.59-16.11-12.34-11-1-21.19,1.46-31.21,5.46-.36.14-.71.34-1.08.48-4.47,1.58-5.66.7-5.68-4.14,0-8.6.33-9.13,8.47-12.26,12.93-5,26.2-6.63,39.86-3.9,15,3,24,12.65,24.84,28,.74,12.93.61,25.93.57,38.89,0,7.86.91,15.37,5,22.27a3.94,3.94,0,0,1-1.2,5.73q-3.75,2.67-7.65,5.11c-2.34,1.45-4.53.74-6.05-1.25-2.55-3.37-4.83-6.94-7.44-10.74l-2.19,2.14c-11.56,11.36-25.32,15.15-40.89,11.07-11-2.88-17.33-10.54-19.28-21.74-3.68-21.09,10.5-35.17,29.78-37.32,9.57-1.07,18.93.26,28.26,2.17.67.13,1.35.28,2,.38A11.53,11.53,0,0,0,349.78,367.34Zm-26.69,43.57a67.83,67.83,0,0,0,7-.91c8.3-1.94,15.36-5.87,18.06-14.46,1.34-4.24,1.25-8.94,1.58-13.45A2.84,2.84,0,0,0,348,380c-9.3-2-18.66-3.37-28.13-1.23s-13.69,8.85-12.55,19.69C308,405,313.32,411.4,323.09,410.91Z" transform="translate(-273.84 -321.4)"/>
    <path d="M554.44,425.73a68,68,0,0,1-25.51-4.56c-7.46-2.78-9.78-7.3-7.75-14.9a2.58,2.58,0,0,1,3.37-2.06,29.74,29.74,0,0,1,4.45,1.56c10.56,4.29,21.46,6.13,32.78,4.27,6.1-1,11.47-3.35,13.56-9.92,1.63-5.12.11-10.42-4.58-12.9s-10-4.2-15-6.05c-5.28-1.92-10.77-3.33-16-5.46-8.54-3.51-14.4-9.75-16.75-18.79-3-11.74,1.89-23.06,12.72-29.68a40.2,40.2,0,0,1,19.67-5.77,66.7,66.7,0,0,1,24.81,3.44c7.73,2.67,9.31,5.16,8.64,13.22-.3,3.68-1.56,4.49-5.05,3.3-3.92-1.33-7.77-3-11.79-3.86-7.4-1.57-14.92-1.88-22.29.26-4.54,1.32-8,3.94-8.76,9-.9,5.79,1.14,10.44,6.48,12.68,7.44,3.13,15.19,5.52,22.79,8.28,3.24,1.18,6.54,2.28,9.64,3.77,17.6,8.5,18.44,30.35,7.08,42.45-7.36,7.84-16.88,10.65-27.15,11.68C558,425.88,556.22,425.73,554.44,425.73Z" transform="translate(-273.84 -321.4)"/>
    <path d="M574.54,458.54c-8.59.82-16.75,1.64-24.93,2.31-1.22.1-2.5-.55-3.75-.85.6-1.24.87-2.91,1.85-3.63,6.74-5,14.54-7.58,22.7-9,10-1.72,20.08-1.92,30.05.43,6.74,1.59,7.87,2.86,7.51,9.85-.9,17.38-6.88,32.78-18.64,45.77a17.25,17.25,0,0,1-3.83,3.26c-.87.52-2.14.38-3.23.54-.12-1.08-.62-2.31-.29-3.23,2-5.6,4.51-11,6.12-16.71a161.61,161.61,0,0,0,4.35-20.19c.6-3.91-1.12-6-5.07-6.82C583.06,459.36,578.61,459.07,574.54,458.54Z" transform="translate(-273.84 -321.4)"/>
  </g>
</svg>
