<svg id="Layer_1" data-name="Layer 1" xmlns="http://www.w3.org/2000/svg" viewBox="0 0 603.96 853.1">
  <g>
    <path d="M144.24,183.75c18.77,0,37.53-.07,56.29,0,8,.05,15.95.74,23.92.7,18.93-.11,37.86-.54,56.79-.69,5.31,0,10.63.73,15.94.69,21.09-.15,42.19-.58,63.28-.69,8.14,0,16.28.73,24.42.68,18.77-.09,37.53-.54,56.3-.68,5.64,0,11.29.73,16.93.69,21.43-.15,42.85-.56,64.28-.69,6.64,0,13.29.73,19.93.69,19.59-.13,39.19-.6,58.79-.69,9.3,0,18.61.72,27.91.68,18.6-.08,37.2-.59,55.8-.67,9.63,0,19.27.59,28.91.67,5,.05,10-.52,14.94-.63,4.38-.1,6.22,2,5.78,6.56-1.53,15.88-2.89,31.77-4.28,47.66-1.69,19.37-3.28,38.74-5,58.1-2,21.51-4.1,43-6,64.51-1.32,14.57-2.36,29.15-3.68,43.72-1.73,19.19-3.68,38.37-5.39,57.57-1.62,18.2-3,36.43-4.6,54.63-1.67,18.88-3.54,37.73-5.23,56.61-1.33,14.89-2.42,29.81-3.79,44.69-1.76,19-3.78,38-5.53,57.06-1.57,17-2.9,34.12-4.4,51.17-1.5,17.21-3.1,34.42-4.61,51.64-.54,6.12-1.1,12.25-1.35,18.39-.17,4-2,6-5.73,7q-24.79,6.71-49.53,13.66c-25.45,7.13-50.86,14.42-76.33,21.48-30,8.29-60,16.39-90,24.6-5.93,1.63-12,3.05-17.72,5.18-6,2.19-11.54,1.8-17.53.11-28.17-7.93-56.43-15.56-84.63-23.39-32.36-9-64.69-18.09-97.05-27.08q-25.69-7.14-51.45-14c-4.46-1.18-6.38-3.27-6.77-8.21-1.85-23.69-4.27-47.33-6.38-71-1.55-17.38-2.89-34.77-4.43-52.15-1.42-16.05-3-32.09-4.45-48.14-1.57-17.7-3-35.42-4.54-53.13-1.7-19.2-3.54-38.39-5.25-57.59-1.32-14.89-2.45-29.81-3.83-44.7-1.75-19-3.73-38-5.48-57.07-1.25-13.74-2.22-27.5-3.42-41.23-2.72-31-5.54-61.91-8.25-92.87q-3.48-39.74-6.79-79.48C129.86,184.55,130,184.54,144.24,183.75ZM432.6,305.6v.12H250.33c-6,0-6.74.8-6.19,6.58,1.89,20.19,4.11,40.35,5.55,60.57.64,8.83,2.12,7.52,8.74,7.52q135.57.09,271.15.14c1.67,0,3.33,0,5,0,3.59,0,5.1,1.36,4.52,5.23-.77,5.08-1,10.25-1.48,15.38-1.5,16.72-2.85,33.45-4.55,50.14-.73,7.18-1,7.13-8.23,7.16l-175.72,1c-.33,0-.66,0-1,0-3.56-.28-4.93.8-4.55,4.86,2,21,3.69,42.05,5.34,63.1.35,4.39,2.26,6,6.66,6,28.94.18,57.88.66,86.82.83,25.8.15,51.61.07,77.41,0,3.74,0,6.17.73,5.73,5.24-1.15,11.91-2.14,23.83-3.23,35.75-1.54,16.71-3.35,33.4-4.51,50.14-.36,5.22-2.1,7.65-7.15,9-25.12,6.54-50.15,13.43-75.24,20.07a14,14,0,0,1-6.82.17c-25.73-6.8-51.4-13.78-77.1-20.65-3-.79-4.45-2.27-4.69-5.49-1.25-16.4-2.67-32.79-4-49.19-.53-6.53-.79-6.82-7.57-6.82-19.48,0-39-.09-58.43,0-9.95.06-9.46-2-8.57,9.5,1.69,21.7,3.85,43.37,5.84,65.05,1.19,12.9,2.52,25.8,3.64,38.71.31,3.57,2.16,5.3,5.41,6.18,8.19,2.23,16.35,4.58,24.53,6.84,36.69,10.17,73.36,20.45,110.13,30.37,7,1.9,13.74,5,21.82,2.69,44.95-12.85,90.05-25.19,135.11-37.67,13.26-3.67,13-3.63,13.91-17.66,1.12-16.75,2.76-33.46,4.27-50.17,1.83-20.36,3.79-40.71,5.63-61.06,1.51-16.72,2.9-33.44,4.39-50.16s3.1-33.42,4.59-50.14c1.5-16.88,2.89-33.78,4.39-50.66,1.49-16.71,3.11-33.42,4.6-50.14,1.56-17.54,2.89-35.11,4.67-52.63.47-4.58-.89-5.91-5.26-5.91Q524.23,305.67,432.6,305.6Z" transform="translate(-130.56 -16.49)"/>
    <path d="M421.6,99.7c-7.64-8.48-14.22-15.9-20.92-23.2-8.87-9.68-17.9-19.22-26.7-29-1.47-1.63-2.91-3.94-3-6-.41-7-.21-14-.24-21,0-3,1.6-4,4.45-4q49.15.06,98.32,0c3,0,4.21,1.47,4.2,4.26,0,8-.07,16,0,24,0,3.66-2.12,4.37-5.19,4.35-12.15-.06-24.29,0-36.44,0h-7c2.45,3,3.95,5.16,5.7,7.05,13.88,15,27.92,29.89,41.61,45.08,2,2.2,3.05,5.8,3.34,8.86.51,5.44-.12,11,.16,16.46.25,4.74-1.5,6.46-6.29,6.41-20.12-.17-40.25-.07-60.38-.06-12.15,0-24.29-.08-36.44.06-4.18.05-6.1-1.44-6-5.81.17-7.31.15-14.64-.06-21.95-.11-4.14,1.58-5.56,5.62-5.51,12.48.15,25,0,37.43,0Z" transform="translate(-130.56 -16.49)"/>
    <path d="M548.54,99.72l-4.9-5.32c-14.4-15.66-28.89-31.25-43.09-47.09a14.23,14.23,0,0,1-3-8c-.43-5.78,0-11.63-.13-17.45-.09-3.76,1.23-5.36,5.2-5.35q48.4.14,96.82,0c3.62,0,5.17,1.33,5.12,4.94q-.15,11.22-.06,22.45c0,3.85-1.71,5.25-5.49,5.21-12.48-.12-25,0-37.43,0H555c6.44,7,12.06,13.24,17.75,19.38q15.42,16.65,30.87,33.27c.9,1,2.25,2.1,2.28,3.18.24,8.45.41,16.92,0,25.35,0,1-3.94,2.46-6.06,2.48-22.13.19-44.25.13-66.38.14-10.15,0-20.3-.08-30.44.07-4,.05-5.8-1.3-5.68-5.5.22-7.31.24-14.64,0-22-.12-4.4,1.8-5.85,6-5.81,12.81.12,25.62,0,38.43,0Z" transform="translate(-130.56 -16.49)"/>
    <path d="M257.91,74.52q0-25.69,0-51.39c0-6.22.35-6.55,6.44-6.55,27.11,0,54.22.08,81.33-.09,4.68,0,6.61,1.32,6.41,6.21-.3,7.47-.23,15,0,22.45.14,4.4-1.68,5.83-5.9,5.79-14-.14-28,.1-41.91-.14-4.75-.08-6.47,1.46-6.37,6.28.26,12.13.24,24.28.05,36.42-.06,4,1.5,5.17,5.29,5.14,14-.15,27.89-.07,41.84,0,6.74,0,6.87.17,6.9,7.1,0,7.32-.1,14.64.08,22,.09,3.91-1.54,5.3-5.33,5.29q-41.67-.12-83.33,0c-4.51,0-5.68-1.93-5.65-6,.13-17.47.06-34.93.06-52.4Z" transform="translate(-130.56 -16.49)"/>
  </g>
</svg>
