<svg id="Layer_1" data-name="Layer 1" xmlns="http://www.w3.org/2000/svg" viewBox="0 0 284.4 398.6">
  <g>
    <path d="M508,230.45c27.52,16.06,41.23,41.58,48.22,71.3,4.73,20.11,3.67,40.34-.19,60.67a433,433,0,0,0-5.67,45.31c-2,25-3.29,50-5,75-1.25,18-2.44,36.07-4.23,54-1.33,13.5-3.66,26.9-5.37,40.36-.94,7.38-1,14.9-2.38,22.18-2.15,11.18-8.74,17.88-20.69,19.66-10.94,1.64-21.57,5.87-32.53,6.84-21.84,1.94-43.8,3.2-65.71,3.25a197.24,197.24,0,0,1-55.64-7.39,116.62,116.62,0,0,1-16.82-6.06c-2.32-1.08-4.86-3.73-5.47-6.13Q328,575.8,320.28,542c-5.83-25.48-11.67-51-16.82-76.58-1.94-9.62-2-19.63-2.71-29.48-.11-1.49,1.11-3.06,1.72-4.6l1.63,0c.91,2.68,2,5.31,2.69,8,6.23,24.95,12.2,49.95,18.64,74.84,2.78,10.75,6.34,21.31,9.87,31.85.8,2.39,3,4.32,5.18,7.4-5,7.54,3.5,11.45,8.14,17.27-4.81,1.72-4.59,4.81-3.44,8.63,1.91,6.34,3.11,12.89,5,19.23,3.24,10.61,10.36,16.56,21.69,17.53,16.72,1.44,33.4,4.27,50.13,4.51,25.37.37,50.89.32,75.95-4.66,8.78-1.74,17.27-5,23.64-13.42l-4.41-2c2.46-1.41,3.66-2.23,5-2.83,3.1-1.43,4.23-3.71,5.22-7.12,3-10.28,2.43-20.55,2.36-31-.07-9.71,1.92-19.42,2.86-29.14q2.05-21,3.88-42.06c.82-9.57,1.35-19.16,2.12-28.73.16-2,.22-4.4,1.36-5.73,3.72-4.35,2.66-8-.42-12-2.56-3.32-2.25-6.76.45-10,.82-1,2-2.23,2-3.31-.42-9.52-1.09-19-1.75-29.71-2.43,1.32-4,1.83-5.09,2.83-7.85,7.1-15.13,14.95-23.55,21.29-6.92,5.21-14.72,10.08-22.9,12.66a187.37,187.37,0,0,1-75,7.7c-17.8-1.72-34.19-7.15-48.34-18.14-3.48-2.7-5.95-7-8.14-11-1.83-3.33,1.39-7.2,5.29-7.6a8.93,8.93,0,0,0,4.67-2.15c3.84-3.38,7.3-7.2,11.19-10.53,16.39-14,32.92-27.88,49.29-41.93,2.94-2.52,5.37-5.65,8.53-9-4.72-1-8.57-2.28-12.46-2.44-21.63-.86-43.28-1.09-64.9-2.19-24.24-1.24-48.44-3.19-72.66-4.81-1.65-.11-3.31,0-6.06,0,2.21,2,3.81,3.46,5.79,5.25l-4.11,1.51c1.81,6.49,3.09,13,5.48,19.13s6.79,6.95,13,4.72c7.73-2.75,15.62-5.8,23.67-6.76,15.66-1.87,31.48-2.38,47.24-3.4a5.68,5.68,0,0,1,4.24,1.39c-9.17,1-18.35,2-27.49,3.14-12.67,1.63-25.45,2.81-37.89,5.53-4.43,1-8.71,5.33-11.74,9.17-3.47,4.39-1,8.68,4.69,9.68,3.76.67,7.53,1.35,11.31,1.83,3.95.49,5.33,2.29,3.45,6.53-6.83-.35-13.72-6.75-20.76-.35.76,5.74,1.58,11.91,2.41,18.08l-1.84.43-10.05-38-1.28.33c.67,13.7,8.18,26.21,7.91,40.07l-1.66.38c-2.25-9.37-4.8-18.69-6.69-28.13q-5.76-28.68-10.81-57.49a11.53,11.53,0,0,1,1.73-7.8c4.24-6.08,10.91-8.42,18-9.43,1.29-.19,2.81,1.21,4.22,1.88-.9,1.42-1.48,3.59-2.75,4.11-3.5,1.42-7.32,2.05-10.94,3.22-1.43.47-3.58,1.41-3.75,2.41-.21,1.23,1.06,3,2.18,4.05a11,11,0,0,0,4.35,2.07c19.37,5.54,39.32,6.41,59.26,6.82,28.64.6,57.29.79,85.94,1.07,6.27.07,12.8.63,16.27-6.61.41-.85,2.53-.88,3.85-1.29a18.19,18.19,0,0,1,.53,4.47c-.12,1-1.14,1.9-1.83,3,2.09.49,4,1.25,5.84,1.25,1.22,0,3.43-1,3.52-1.76.63-5.64,5.13-7.17,9.25-8.55a24.47,24.47,0,0,0,14.79-13q-6.75,4.4-13.52,8.76c-1.82,1.16-3.57,2.81-5.55,3.21s-4.58,0-6-1.11c-1-.85-1.14-3.82-.49-5.35,2.92-6.87,6.64-13.23,14.88-15.9l-4.71,9.48,1,.83a18.55,18.55,0,0,0,3-2.54c6.9-9,7.34-9.08,15.43-3.5l10.42-4.6c-.1-1.75-.21-3.85-.33-6-5.48.88-11.14,2-16.85,2.62-2.5.29-5.1-.29-7.65-.47.52-2.62.54-5.47,1.65-7.81,4.91-10.35,10.27-20.48,15.18-30.82,2.27-4.78,3.75-9.93,5.87-14.8,1.53-3.53,3.57-6.83,5.24-10.3a17.49,17.49,0,0,0,.87-3.73Zm-73.11,124-2-1.77c-5.06,5.58-10.16,11.12-15.16,16.76-8.34,9.4-16.52,19-30.11,22l4.86,3.31c-6.27,8.38-6.91,11.21-3.23,15.17,1.9,2.05,4.1,4,7.29,1.19-.58-1-1-1.84-1.55-2.66-3.4-5.52-2.54-9.24,3.21-12.27,7.13-3.74,14.77-3.67,22.37-2,1.31.28,2.91,2.45,3.12,3.93.71,5,.7,10.07,1.33,15.07.11,1,1.85,1.72,2.83,2.57a13.23,13.23,0,0,0,.73-3.63c-.31-3.4-1.43-6.81-1.23-10.16a8.39,8.39,0,0,1,8.33-7.75c3.9.08,5.5,2.09,4.32,5.81-.75,2.37-2.19,4.53-2.79,6.92a12.27,12.27,0,0,0,.05,5.93c.15.56,3.37,1.18,3.89.6a12.45,12.45,0,0,0,2.69-5.44c.77-3.37.83-6.91,1.63-10.28.86-3.62,3.32-5.16,7.26-5.51,5.94-.55,7.71,2.71,9.19,7.51,2.13,6.91,6.25,9.93,12.15,9.88,9.44-.07,11.42-1.45,14.25-9.91a14.39,14.39,0,0,0,.62-1.89c1.18-6.5,5.5-9.1,11.68-9.33,2.29-.09,4.58,0,6.87,0l.82-1.18c-1.15-.66-2.29-1.88-3.44-1.89-5.15,0-10.31.57-15.42.28-1.86-.1-3.63-2-5.41-3.15-1.53-1-3-2-4.53-3l-.77,1.24,1.74,4.32c-10,3.91-12.79,4.53-18-1.73-.9.95-1.79,1.9-2.69,2.84-3.93,4.09-10.21,3.25-12.18-2.05a15.63,15.63,0,0,1-.43-8.63c1.42-5.95,3.79-11.68,5.32-17.61.77-3,.54-6.2.76-9.31l-1.58-.3a29.48,29.48,0,0,0-2,4.23c-2.76,9.54-5.55,19.07-8.06,28.68-1.38,5.28-3.73,6.88-8.66,4.61,2.81-7.39,5.69-14.79,8.41-22.24.47-1.29.27-2.81.38-4.23-1.75-.12-3.95-1-5.16-.21a18.77,18.77,0,0,0-6,5.77c-3.07,4.92-5.49,10.23-8.43,15.24S416,390,409.14,390.2a26.28,26.28,0,0,1-3.18-.29c.24-1.21.09-2.76.79-3.58,3.66-4.28,7.61-8.33,11.34-12.56C423.73,367.36,429.27,360.86,434.85,354.4Zm74-44c4.09-.37,6.71-.8,9.33-.81,5,0,7,2.88,4.15,7-2,2.92-5.35,5.95-8.63,6.75-8.81,2.13-17.9,3.08-26.88,4.53-3.93.64-7.84,1.37-11.76,2.06.07.5.13,1,.2,1.51,2.94,0,5.94.36,8.82-.07,8.84-1.3,17.69-2.64,26.43-4.48a52.23,52.23,0,0,0,12.43-4.59c3.75-1.89,5.74-5,3.27-9.45-.51-.92-.46-2.93.18-3.49s2.46-.55,3.67-.33a44.22,44.22,0,0,1,5.31,1.59c.2-.5.39-1,.59-1.48-1.32-.65-2.61-1.37-4-1.92-6.38-2.59-7.31-5-5.36-11.4.62-2.05-.16-4.53-.36-7.8l-5.62,3.45,2.61,4.38c-3.9,6.24-10.52,5.49-17.17,6.7C509.27,304.83,514.07,305.57,508.81,310.41ZM520.27,371l-.27-2c-12.9,2.58-23.23-2.52-33.93-10.13,9.34-2.1,15.56,4.49,23.27,4.79-3.8-4.27-8.5-7.57-14.12-7.64a33,33,0,0,1-16.46-4.85,53.61,53.61,0,0,0-7.13-2.87l-1.12,2c5.05,4.43,9.85,9.19,15.21,13.2,8.39,6.29,17.7,10.61,28.57,9.8C516.33,373.16,518.28,371.83,520.27,371ZM341.19,608.49c.18-16-8.19-29.81-10.74-45.64C327.33,567.8,335.25,601.18,341.19,608.49Zm-23.33-98.61c2.71,15.66,4.61,31.49,9.44,46.68C328.38,540.09,321.3,525.38,317.86,509.88Zm20.93,59.86-1.89.57a83.33,83.33,0,0,0,13.28,38.53Q344.48,589.29,338.79,569.74Zm165.33-279,1.05,1.07c13-5.19,21-14.32,17.62-20ZM416.94,625.81l.05-1.57-36-3-.14,1.61Zm109.14-269c4.37-4,7-8.87,7-14.64,0-3.89-3.12-4.81-7.08-2.11C531.16,345.55,527.41,351.12,526.08,356.85Zm-58.25,7.59,1.72-.84c.88-5.73-4.14-13.43-9.85-12.85Zm34.89-104.51-2.43-1.25-7.81,15.4,2.23,1.14Zm13.47-20.11-1,1.05,10.15,10.84C525.47,245.33,522.59,242.13,516.19,239.82Zm-2.54,15.46c-1.36,4.32-2.52,8-3.89,12.38C517.28,263.92,518.89,259.11,513.65,255.28ZM466.7,624.12l0-1.56-28.11,1.92.07,1Zm24-270.38,11.82.77C499.34,350,495.83,349.63,490.66,353.74Zm54,58.54,1.26-.07,1.15-18-1.18-.07ZM311.4,493.76l1.51-.27q-1.44-7.58-2.86-15.16l-1.16.21Zm209-133.2,2.23-1.89q-3.2-3.42-6.37-6.85l-1.93,1.69Z" transform="translate(-274.93 -230.45)"/>
    <path d="M412.89,523.71c6.36-3.08,12.63-5.2,20-2.64a36.08,36.08,0,0,1,22.69,21.5c1.19,2.91.8,5.1-2,6.79-2,1.22-3.91,2.52-5.81,3.86a9.25,9.25,0,0,0-4.24,9.4c.93,7.24-2.6,10.33-9.56,8.49-4.64-1.23-9.16-3.14-13.5,1.11-.58.57-4-.36-4.63-1.45a35.74,35.74,0,0,1-4.22-10.24c-1.17-5.51-1-11.39-8.38-13.09-1.09-.26-2.16-3.56-2.08-5.41.25-6,4.62-9.59,8.61-13.4,1.39-1.34,2.16-3.33,3.21-5Zm16.44,32.43.82.72c.35,2.29.37,4.7,1.16,6.82.56,1.5,2,3.41,3.33,3.69s3.52-.77,4.66-1.91c3.29-3.29,3.11-7.37.68-10.86-1.41-2-4.12-3.15-6.25-4.67Zm-7.27-7.39c-4.62,2.93-4.9,7.51-5.18,11.88-.12,2,.23,5.28,1.3,5.72,3,1.24,5.79-.34,7.3-3.39C427.67,558.55,426.34,552.72,422.06,548.75Z" transform="translate(-274.93 -230.45)"/>
    <path d="M430.6,500c-.15-15.16,14.2-30.1,30.54-31.34,13.25-1,29.08,5.5,35.54,20,5.67,12.7,3.65,24.25-7.21,34.24-9.25,8.51-20.3,11-32.39,7.38-12.61-3.77-22.36-10.85-25.95-24.33a12.82,12.82,0,0,1-.51-2.43C430.54,502.3,430.6,501.13,430.6,500Zm34.71,25.54c1.79,0,3.46.09,5.12,0,9.68-.61,17.16-4.85,21.65-13.59,4.32-8.43,3.44-16.44-1.77-24.4-5.46-8.34-13.08-12.6-22.77-13.08-12.05-.59-25,4.87-29.26,17.14C432.17,509.19,447.13,528,465.31,525.51Z" transform="translate(-274.93 -230.45)"/>
    <path d="M413,523.61c-15,14.14-34.79,12.92-47.6,3.51-10.32-7.58-15.2-21-11.52-33.11.84-2.77,2.92-5.17,4.43-7.74l1.74.66a17,17,0,0,1-.27,3.93c-5.7,18.9,2.54,33.14,22.07,38,16.23,4.06,33.29-8.4,33.51-24.31.24-16.85-17.35-30.93-35-26.18-5.55,1.49-11,3.3-17.8,5.35,4.14-7.15,10-9.89,16.26-10.84,14.47-2.19,27.22,1.61,36.48,13.48,7.33,9.38,6.75,19.72,2,30.06a75.66,75.66,0,0,1-4.33,7.27Z" transform="translate(-274.93 -230.45)"/>
    <path d="M305.1,311.4c1.16-8.51,8.62-8.35,14.61-9.11,12.14-1.55,24.39-2.62,36.62-3.14,29.24-1.23,58.49-2.08,87.74-2.92,3.42-.09,9.05-2.3,9.2,3.44.14,5.39-5.72,4.7-9.31,4.72-15.25.11-30.57,1.2-45.68-2.08-1.26-.27-2.92-.62-3.88-.05-4.29,2.54-8.48,1.23-12.73.2-10-2.41-19.79.18-29.58,1.59C336.43,306.31,320.82,308.92,305.1,311.4Z" transform="translate(-274.93 -230.45)"/>
    <path d="M370.11,513.85c-7.28-.19-11.54-3.11-11.27-7.72.35-5.76,6.67-11.73,12.3-11.63,4.75.09,10.23,5.94,9.95,10.6S375.5,514,370.11,513.85Z" transform="translate(-274.93 -230.45)"/>
    <path d="M405.4,585.56c-8.14-.69-16.31-1.14-24.41-2.12-7.87-1-15.69-2.37-23.49-3.81-1.5-.28-2.78-1.65-4.17-2.52,1.66-1,3.28-2,5-2.84.48-.23,1.27.23,1.92.36q21.88,4.27,43.76,8.55a9.19,9.19,0,0,1,1.33.48Z" transform="translate(-274.93 -230.45)"/>
    <path d="M352.81,391.43l21.77-1.67c-2.27,6.64-2.95,7-8.77,5.8-4.27-.86-8.62-1.36-12.94-2Z" transform="translate(-274.93 -230.45)"/>
    <path d="M474.73,405.54c-2.3-1.1-5-1.76-6.77-3.43-1.45-1.39-2.75-4.25-2.28-5.94.39-1.39,3.44-2.16,5.41-2.94a34.19,34.19,0,0,1,4.35-.89c5.4-1.32,8.78.19,9.38,4.23.67,4.53-2.42,7.81-7.75,8.18-.66.05-1.32,0-2,0Z" transform="translate(-274.93 -230.45)"/>
    <path d="M435.56,364.49c1.95,7.38-3.7,20.52-9.68,23.49-.88.43-2.5.55-3.11,0a3.32,3.32,0,0,1-.71-3.06,46,46,0,0,1,4-7.39C429,373.25,432.21,369.1,435.56,364.49Z" transform="translate(-274.93 -230.45)"/>
    <path d="M460.82,503.71l-8.3.46,4.83,5.09c-4.57,3.47-12.16,3.78-15.57.75-3.84-3.41-3.53-7.59-1.72-11.87,2.17-5.13,6.72-8.2,11.07-7.58C455.94,491.26,460,496.52,460.82,503.71Z" transform="translate(-274.93 -230.45)"/>
  </g>
</svg>
