<svg id="Layer_1" data-name="Layer 1" xmlns="http://www.w3.org/2000/svg" viewBox="0 0 299.57 299.53">
  <path d="M467,723.67h-9c-4.17-2.57-9-4.45-12.41-7.82Q382.41,653,319.54,589.72c-9.88-9.91-10.15-21.27-.31-31.18,28.21-28.4,56.61-56.6,84.85-85,2.8-2.82,4.76-2.6,7.41.1q13.39,13.72,27.09,27.16a8.37,8.37,0,0,1,2.54,8.5c-1.88,9.17,1.69,17.82,9.68,22.7a7.68,7.68,0,0,1,4.09,7.28c0,24.25.1,48.5-.17,72.75a9.78,9.78,0,0,1-3.79,6.78c-7.26,5-10.43,11.76-10,20.42.54,10,7.55,18.8,16.15,20.25,11.42,1.92,21.36-2.94,25.65-12.54s2-19.89-6.56-26.2a9.89,9.89,0,0,1-4.33-8.84c.07-22.92,0-45.84.07-68.77a47.9,47.9,0,0,1,.95-6.39c1.84,1.12,3.09,1.58,3.95,2.44,8.47,8.44,17,16.86,25.2,25.53,1.2,1.27,1.3,3.82,1.46,5.82.3,3.93-.48,8.1.53,11.81,2.86,10.58,14.66,17.42,24.84,15,12.7-3,20-13.66,17.77-25.77a21.64,21.64,0,0,0-24.43-17.7,8.71,8.71,0,0,1-8.41-2.73Q500.87,538,487.7,525.14a9.6,9.6,0,0,1-3.15-8.76c1.59-15.53-9.07-26-24.67-24.91-2.4.16-5.63-.37-7.22-1.89-10-9.51-19.59-19.4-29.33-29.14-2.11-2.11-2.5-4-.08-6.28,8-7.73,15.82-15.66,23.81-23.39,4.89-4.73,10.91-8.09,17.56-6a36.38,36.38,0,0,1,14.14,8.54q62.73,62,124.9,124.51c3.37,3.38,5.3,8.21,7.9,12.36v9c-2.38,3.71-4.19,8-7.22,11.05q-62.54,63-125.47,125.64C475.59,719.11,471,721.09,467,723.67Z" transform="translate(-311.99 -424.14)"/>
</svg>
