<svg id="Layer_1" data-name="Layer 1" xmlns="http://www.w3.org/2000/svg" viewBox="0 0 366.31 135.91">
  <g>
    <path d="M444.79,382.49h21.94c1.88.63,3.74,1.32,5.64,1.88,16.27,4.84,28.59,14.42,36.16,29.72,2.38,4.81,2,5.75-3.37,7.23-8.17,2.27-16.4,4.27-24.52,6.69-3.86,1.16-6.6.41-9.27-2.57-4.75-5.31-10.8-7.87-18-8.25-14.43-.74-25.25,5.78-32.72,17.22s-8.69,23.95-1.73,36.22c6,10.57,15.9,13.85,27.55,13.05,10.22-.7,22.3-9.21,24.62-17.77h-5.52c-8.31,0-16.62.07-24.93,0-5.54-.08-6.84-2.13-4.62-7.24s4.79-9.83,6.85-14.88c1.75-4.3,4.53-5.85,9.2-5.78,16,.23,31.91,0,47.87.15,4.26.05,6.71-1.42,8.32-5.41,14.23-35.28,50-53.3,86.65-47.92,17.79,2.61,32.57,11.47,41.71,26.93,12.62,21.32,12.6,44.09.49,65.36-16.64,29.22-43.17,43.21-76.75,41.12-22.52-1.39-40.38-12.28-51-33-1.24-2.41-2.42-4.85-3.94-7.9-2.15,3.18-3.73,5.68-5.47,8.06-18.36,25-42.92,37-73.88,31.85-28.53-4.7-50.1-26.62-49.9-58.05.19-30.13,15.35-52.19,41.21-66.68C425.7,387.76,435.59,385.74,444.79,382.49Zm163.94,65.24c.63-15.38-9.92-28.53-24.31-30.32a39,39,0,0,0-41.51,26.33c-7,21.32,6.5,40.3,28.06,40.58C588.43,484.55,608.29,468.5,608.73,447.73Z" transform="translate(-279.81 -382.49)"/>
    <path d="M279.81,439.74c1.66-4.82,4.13-6.69,8.43-6.68,24.59.1,49.17,0,73.76.16,1.69,0,4.71,1.45,4.8,2.45.31,3.22-2.14,4.41-5.23,4.41-12.79,0-25.58,0-38.37,0q-18.43,0-36.88,0C284.38,440.08,282.44,439.89,279.81,439.74Z" transform="translate(-279.81 -382.49)"/>
    <path d="M376,417.34c-.69,3.82-2.25,6.72-6.21,6.74-20.22.11-40.44,0-60.65,0a8.8,8.8,0,0,1-2.13-.67c.52-4.3,3-6.91,7-7,19.72-.21,39.44-.11,59.16-.05A10.28,10.28,0,0,1,376,417.34Z" transform="translate(-279.81 -382.49)"/>
    <path d="M343.05,456.94c-5.14,0-10.28.14-15.41-.09-1.58-.07-3.12-1.18-4.67-1.81a26.85,26.85,0,0,1,2.59-4.57,4.5,4.5,0,0,1,3.1-1.29c10.43-.1,20.87-.2,31.3.07,1.33,0,3.8,2.53,3.61,3.43-.33,1.58-2.24,3.89-3.64,4-5.59.45-11.25.18-16.88.18Z" transform="translate(-279.81 -382.49)"/>
  </g>
</svg>
