<svg id="Layer_1" data-name="Layer 1" xmlns="http://www.w3.org/2000/svg" viewBox="0 0 360.94 511.06">
  <g>
    <path d="M441.11,681.76c-11.59-3.39-23.15-6.91-34.78-10.15q-53.67-15-107.42-29.68c-3.85-1-5-3-5.26-6.52q-5.37-61.3-10.87-122.59c-2.8-31.76-5.45-63.54-8.28-95.3-2.82-31.6-5.78-63.18-8.66-94.77q-2.1-23.07-4.1-46.16c-.12-1.44,0-2.9,0-4.67h360.9c-.43,5.91-.76,11.49-1.25,17.06q-3.9,44.16-7.88,88.33c-2.86,31.6-5.83,63.18-8.66,94.77C602.33,500,600,528,597.54,556c-2.33,26.64-4.75,53.27-7,79.91-.3,3.52-1.89,5-5.3,5.92Q516.56,660.61,448,679.72a41.7,41.7,0,0,0-4.91,2Zm55.43-197.49a15.2,15.2,0,0,1,.37,2.57c-1.45,17.37-3,34.74-4.35,52.12-.25,3.21-2.32,4-4.83,4.67-13.78,3.67-27.52,7.51-41.36,11a19.61,19.61,0,0,1-9.14-.07c-13-3.27-25.92-7.11-39-10.29-4.79-1.16-7.73-2.58-7.19-8.3.35-3.74-.51-7.6-.89-11.4-.6-6-1.25-12.09-1.88-18.08H343.16c-.29.69-.55,1-.52,1.29,1.91,22.18,3.89,44.36,5.74,66.54.26,3.19,2.19,4,4.73,4.74Q395.58,590.8,438,602.6a12.53,12.53,0,0,0,6.26.4c29.11-7.93,58.18-16,87.27-24,2.65-.73,3.61-2.07,3.84-4.85,1.11-13.73,2.49-27.45,3.74-41.17q2.8-30.76,5.56-61.52c1-10.88,1.86-21.76,2.84-33.38h-165c-1.41-15.5-2.75-30.31-4.15-45.68h7q80.31,0,160.64.19c4.36,0,6.26-1,6.25-5.72,0-5.29,1-10.57,1.44-15.86.72-8,1.37-16.05,2.06-24.21H328.05c.37,3.66.71,6.78,1,9.9,3.65,40.37,7.45,80.72,10.78,121.12.46,5.46,2.33,6.39,7.17,6.38,47.72-.09,95.45,0,143.17.1Z" transform="translate(-261.68 -170.7)"/>
    <path d="M445.77,170.78c7.4,0,14.38-.18,21.34.13a6.74,6.74,0,0,1,4.43,2.94c4.34,6.66,8.38,13.51,12.87,20.87,4.41-7.19,8.63-13.84,12.57-20.66,1.43-2.47,3-3.44,5.92-3.35,6.61.21,13.22.07,20.11.07v68.49H500.2v-31.4l-1.06-.28L484.23,230.3l-15.81-24.1v33.08H445.77Z" transform="translate(-261.68 -170.7)"/>
    <path d="M318.1,217v22.39H295V171.08h22.9v22.09h20.85V171h23.1v68.24h-23V217Z" transform="translate(-261.68 -170.7)"/>
    <path d="M392.33,193.66H372.24V171h63.14v22.7h-20v45.49H392.33Z" transform="translate(-261.68 -170.7)"/>
    <path d="M589.88,216.61v22.74H534.81V171.12h22.85v45.49Z" transform="translate(-261.68 -170.7)"/>
  </g>
</svg>
