<svg id="Layer_1" data-name="Layer 1" xmlns="http://www.w3.org/2000/svg" viewBox="0 0 562.57 746.17">
  <g>
    <path d="M654.79,659c25,9.12,34.22,27.93,20,48.94-6.9,10.19-16.94,16.92-27.65,22.5-30.07,15.66-62.69,23-95.76,28.75-37,6.41-74.27,9.26-111.76,10.41-30.84,1-61.56-.11-92.32-2.21a582.38,582.38,0,0,1-82.06-11.23c-22.36-4.77-44.36-10.91-64.64-21.84-11.87-6.4-22.68-14.17-28.46-27-4-8.84-3.54-17.44,2.19-25.56,7.33-10.39,17.82-16.49,29.29-20.84,21.82-8.26,44.43-9.91,67.36-6.18,3.93.65,7.7,2.91,11.3,4.87,5.92,3.23,11.63,6.82,17.6,10.36-6.64,0-12.74-.06-18.84,0a72.84,72.84,0,0,0-33.59,8.37c-.59.31-1.19.61-1.76.94-11.95,7.05-12.54,17.11-1.19,25.19,12.47,8.87,27,12.81,41.6,16.3A473.63,473.63,0,0,0,378,733c27.78,1.06,55.62,2.24,83.38,1.58,42.31-1,84.44-4.79,125.71-15,17.51-4.32,34.77-9.7,49.87-19.86,5.93-4,11.11-9.5,15.56-15.16s5.19-12.84,3.47-20C655.63,662.81,655.26,661.09,654.79,659Z" transform="translate(-169.53 -80.21)"/>
    <path d="M497,80.21c8.36,10.36,13.73,22.09,17.18,34.66,8.06,29.39,2.05,56.64-12.8,82.49C488,220.68,469.65,240,451.53,259.56c-15.37,16.59-30.53,33.42-45,50.75-8.61,10.29-14.95,22.3-15.49,36.14a46.9,46.9,0,0,0,2.55,18c12.95,34.16,28.65,67,48,98.05.68,1.09,1.22,2.26,2.39,4.44-2-.84-3.06-1.06-3.85-1.66-33.23-25.15-64-52.73-86.91-88.08-9.63-14.86-16.62-30.84-18.22-48.63-2-22.05,7.48-40.16,21.06-56.49,16.69-20.07,36.73-36.62,56.71-53.22,20.36-16.92,41-33.52,58.72-53.36,12.74-14.3,23.53-29.75,27.75-49,2.39-10.86,1.47-21.49-1.18-32.1Z" transform="translate(-169.53 -80.21)"/>
    <path d="M363.14,454.1c-7.95,2.36-16.06,4.27-23.8,7.18a294.88,294.88,0,0,0-30.17,13c-3.58,1.82-8.32,6.42-8.12,9.46.35,5.32,7,5.44,11.32,5.92,16.19,1.77,32.43,3.82,48.68,4.15,29.28.59,58.62.84,87.87-.3,28.9-1.13,57.76-3.79,86.57-6.49,18.82-1.76,37.52-4.79,56.93-7.34a32.77,32.77,0,0,1-3.48,3.66c-12,9.24-24.24,18.2-36.06,27.68-6.3,5.05-13.8,5.61-21,6.85-40.21,6.92-80.64,12.19-121.49,13.3-24.93.68-49.9,1.25-74.84.77-24.13-.46-48.21-2.85-71.79-8.33-12.94-3-25.95-6.4-36.43-15.45-9.43-8.14-10.49-19.52-1.14-27.67a75.74,75.74,0,0,1,21.66-12.83c18.24-7.25,37.67-9.84,57.08-11.59,17.56-1.59,35.2-2.17,52.81-3.17,1.79-.1,3.6,0,5.4,0Z" transform="translate(-169.53 -80.21)"/>
    <path d="M614.42,209.29c-5.17,3.53-10.35,7-15.51,10.59-25.66,17.66-51.08,35.63-73,58a202.65,202.65,0,0,0-14.69,17c-10.48,13.36-10.58,28.13-4,42.89,5.63,12.58,12.56,24.58,18.72,36.93,6.38,12.79,10.86,26,9.49,40.72-1.71,18.37-10.82,32.69-24,44.61-12.32,11.12-27.08,18-43,22.53a6,6,0,0,1-1.45.27c-.29,0-.58-.24-1.54-.67,1.73-1.79,3.33-3.38,4.85-5,10.71-11.56,19.3-24.16,20.89-40.47,1-10.43-2.12-19.85-7.25-28.5-7.29-12.31-15.41-24.12-23-36.27-7.77-12.5-13.11-26.07-12.88-40.91.37-23.74,8.18-45,24-63,18.44-21,42-33.86,67.83-43.31,22.92-8.39,46.63-13.42,70.8-16.47a26.74,26.74,0,0,1,3.35,0Z" transform="translate(-169.53 -80.21)"/>
    <path d="M329.91,536.93c-1.66,2.14-2.45,3.2-3.28,4.23-6.16,7.73-4.88,13.89,3.95,18.56,12.34,6.52,25.87,8.42,39.45,10,22.4,2.62,44.88,2.51,67.3.93,27.92-2,55.63-5.67,82.49-14a10.33,10.33,0,0,1,9.73,1.46c11.11,7.33,22.43,14.35,33.65,21.51,1.36.87,2.63,1.87,4.88,3.48-4.93,1.94-9,3.7-13.11,5.15-31.9,11.13-64.65,18.64-98.37,20.82-22.22,1.44-44.56,2.5-66.79,1.8-30.32-1-60.49-4.59-89-15.87A81.58,81.58,0,0,1,280,582.51c-6.81-5.51-6.93-12.75-2.1-20.16,5.08-7.81,12.41-13.25,20.61-16.9s17.27-5.8,26-8.47C325.83,536.58,327.37,536.93,329.91,536.93Z" transform="translate(-169.53 -80.21)"/>
    <path d="M557.14,653.28c-8.08,3.91-14.87,7.65-22,10.56a264,264,0,0,1-77,18.22,626.88,626.88,0,0,1-62.78,2.74c-23.48-.29-47-2.76-69.14-11.31a74.41,74.41,0,0,1-19.52-11.64c-6.8-5.49-7.82-13.33-3.91-21.31,7.13-14.59,20.17-21.09,35.11-24.6,3.8-.89,7.8-.93,12.21-1.42a12.25,12.25,0,0,1-.44,2.55c-4.28,8.52-3.19,13.52,5.91,16.31a135.56,135.56,0,0,0,32.14,6.14,323.09,323.09,0,0,0,108.63-12.43,7.63,7.63,0,0,0,1.92-.53c9-5.81,16.37-2.74,24.17,3.32,9.05,7,19.07,12.77,28.66,19.1C552.7,650,554.25,651.22,557.14,653.28Z" transform="translate(-169.53 -80.21)"/>
    <path d="M732.09,725.37a45.16,45.16,0,0,1-7.3,25.69c-9.56,15.28-23.35,25.89-38.8,34.48-33.07,18.38-69.11,27.54-106.11,33.62a572.35,572.35,0,0,1-114.5,6.78c-60.25-2.22-119.2-12.09-176.29-32-8.72-3-17.29-6.51-25.94-9.78l.41-1.33c3.63.86,7.23,2,10.91,2.56,29.72,4.89,59.39,10.21,89.21,14.38,37.19,5.19,74.68,6,112.18,4.94,39.34-1.09,78.36-5.27,116.82-14,26.87-6.1,53.09-14.12,78.18-25.65,21-9.65,40.66-21.37,57.72-37.14C729.38,727.23,730.34,726.65,732.09,725.37Z" transform="translate(-169.53 -80.21)"/>
    <path d="M604.33,470c13.58-10.76,29-16.74,46.28-17.1a52.78,52.78,0,0,1,33.68,10.62c12.55,9.47,18.37,22.76,19.84,37.83,4,40.61-14.61,69.39-48.36,89.8-19.07,11.53-40,18.09-61.67,22.41-1.51.3-3.06.38-6,.72,7.45-6.12,13.77-11.18,19.93-16.42,17.77-15.11,33.26-32.18,44.62-52.7A80.6,80.6,0,0,0,662.7,514c1.78-17.85-9-33.84-26.71-40.71C625.7,469.26,615.19,469.42,604.33,470Z" transform="translate(-169.53 -80.21)"/>
  </g>
</svg>
