<svg id="Layer_1" data-name="Layer 1" xmlns="http://www.w3.org/2000/svg" viewBox="0 0 168.82 120.53">
  <g>
    <path d="M462.14,653.22l20.58-12c1.76,2.19,3.16,4,4.67,5.77,6.89,8,15.57,10.38,25.61,7.87,4.74-1.19,8.57-3.74,9.39-9.12s-1.47-9.51-6.2-12c-5.43-2.82-11.28-4.89-16.56-8-7.26-4.21-15.15-8-21-13.85-9.4-9.37-10.41-21.64-6.25-33.94,4.09-12.07,13.5-18.2,25.63-20.17,16.49-2.67,30.63,1.19,40.42,15.92a13.89,13.89,0,0,1,1,1.71,6.4,6.4,0,0,1,.18,1.65L521.4,588.9c-3.82-5.34-7.58-10.13-14.68-10.13-5.86,0-10.13,2.21-11.67,6.62-1.74,5,0,10.07,5.35,13.14s11.37,5.4,17,8.2A127.14,127.14,0,0,1,531,614c13.65,9,19,22.82,15.3,38.46-3.1,13-14.83,22.81-30.1,24.54-14.55,1.65-28.71.33-40.58-9.29C470.72,663.77,466.93,658.46,462.14,653.22Z" transform="translate(-378.61 -557.08)"/>
    <path d="M397.92,643.26c2,2.88,3.34,5.18,5,7.22,4,4.81,9.74,6.34,15.73,4.4,5.75-1.86,7.21-6.5,7.24-11.78q.16-39,.16-77.94c0-2,0-3.92,0-6.2h24.7v5.67c0,25.15.05,50.3-.06,75.44a60.32,60.32,0,0,1-1.27,12.37c-3.18,14.61-14.29,23.68-29.19,24.82-17,1.31-31.19-3.19-40.35-18.73a17.33,17.33,0,0,1-.92-1.76,13.89,13.89,0,0,1-.37-1.76Z" transform="translate(-378.61 -557.08)"/>
  </g>
</svg>
