<svg id="Layer_1" data-name="Layer 1" xmlns="http://www.w3.org/2000/svg" viewBox="0 0 403.15 403.25">
  <g>
    <path d="M508.91,509.43q-35.68,0-71.36,0c-6.21,0-6.64.68-6.59,6.92,0,3.74,1.67,4.92,5.18,4.89,12.64-.09,25.28,0,37.92,0,15.31,0,30.61.11,45.91-.07,4.54-.06,6.13,1.54,6.07,6.1-.16,12.8.43,25.62,0,38.41-.43,12.62-8.48,21-17.95,28-16,11.7-34.56,16.79-53.84,19.54a166.21,166.21,0,0,1-68.12-4c-17.17-4.74-33.25-11.76-44.81-26.28a32.65,32.65,0,0,1-7.14-20.84c-.05-30.94-.21-61.88.2-92.81.13-9.78-.46-19.91,6.49-28.5,8.31-10.28,18.18-18.08,31.06-21.37,4.08-1.05,8.55-.76,12.85-.79,17.13-.08,34.26-.15,51.39,0,11.1.08,22.19.81,33.29.72,20.9-.17,38.63-7.4,51.55-24.5,3-3.95,5.89-8,8.57-12.14,5.23-8.14,6.5-17.18,6.28-26.74-.26-11.77.06-23.56.46-35.34,0-1.28,2.24-3.56,3.46-3.57,14.13-.16,28.33-.83,42.37.35,16.17,1.35,25.86,12.73,33.23,25.88,10.27,18.3,15,38.32,16,59.15,1.43,27.46-1.74,54.17-14.75,78.91-5.79,11-13,21.07-25.3,25.72a38.68,38.68,0,0,1-13.11,2.32C555.15,509.55,532,509.43,508.91,509.43Zm-7.78,52.75c0-10.1-6.83-17.33-16.38-17.35-11.31,0-18.69,6.81-18.75,17.34s7.23,18,17.74,18S501.13,573.17,501.13,562.18Z" transform="translate(-228.6 -211.71)"/>
    <path d="M352.84,316.75q35.18,0,70.36,0c3.34,0,5.87-.37,5.89-4.71,0-3.81-1.32-5.42-5.23-5.38-11.31.13-22.63,0-33.94,0-16.46,0-32.93-.11-49.39.06-4.7.05-6.56-1.59-6.47-6.39q.35-16.71,0-33.43c-.26-13.4,5.45-23.71,15.67-31.85,12.38-9.84,26.73-15.3,41.93-18.88a166.24,166.24,0,0,1,81.9,1.25c16.47,4.38,32.27,10.63,43.8,24.22,5.88,6.94,9,14.58,8.78,24.12-.55,21.6-.12,43.24-.2,64.86,0,9.27.27,18.61-.64,27.81-1.86,18.74-11.44,32.9-27.29,43-7,4.44-14.46,6.23-22.7,6.23-14.95,0-29.91.62-44.86.76-16.27.15-32.54.25-48.81,0-17.85-.24-31.79,7.25-44,19.82-10.52,10.78-12.24,23.78-12.29,37.63,0,12.48-.2,25,0,37.43.06,4.47-1.42,6.24-6,6.15-11-.24-22-.63-32.93.05-16.64,1-28.28-6.55-37.3-19.61-10.06-14.55-14.95-31.06-18-48.21a167.1,167.1,0,0,1,2.52-69.12c3.49-14.29,8.92-27.87,18.2-39.57,8.47-10.66,19.36-16.39,33.19-16.33C307.6,316.82,330.22,316.75,352.84,316.75Zm41.36-53.07c.05-11.08-6.48-17-18.86-17.22-8.6-.12-16,8.26-16.07,18.15,0,9.63,7.88,17.1,18.17,17.12C387.52,281.74,394.15,274.6,394.2,263.68Z" transform="translate(-228.6 -211.71)"/>
  </g>
</svg>
