<?xml version="1.0" encoding="utf-8"?>
<!-- Generator: Adobe Illustrator 24.3.0, SVG Export Plug-In . SVG Version: 6.00 Build 0)  -->
<svg version="1.1" id="Layer_1" xmlns="http://www.w3.org/2000/svg" xmlns:xlink="http://www.w3.org/1999/xlink" x="0px" y="0px"
	 viewBox="0 0 3400 1658.6" style="enable-background:new 0 0 3400 1658.6;" xml:space="preserve">
<style type="text/css">
	.st0{clip-path:url(#SVGID_2_);}
</style>
<g id="Layer_2_1_">
	<g id="Layer_1-2">
		<g>
			<defs>
				<rect id="SVGID_1_" x="225.4" y="-909.2" width="3301.8" height="3344.1"/>
			</defs>
			<clipPath id="SVGID_2_">
				<use xlink:href="#SVGID_1_"  style="overflow:visible;"/>
			</clipPath>
			<g class="st0">
				<g>
					<path d="M7556-2246.5c-16.9,0.2-33.8,0.7-50.7,0.7H-3887.3c-16.9,0-33.8-0.4-50.7-0.7V-2402H7556V-2246.5z"/>
					<path d="M1470-1308.9c0-30.4,0.3-57,0-83.7c-0.3-24.1,9.4-41.1,32.1-50.3c6.3-2.5,12.4-5.4,18.3-8.6
						c13.3-7.2,16.9-17.2,8.6-30.7c-3-4.8-5.3-10-8.4-14.7c-13.9-21.7-11.8-42.5,3-62.8c7.3-10.1,14.6-20,21.6-30.3
						c15.6-22.8,34.9-32.2,63.6-25.3c30.1,7.3,36.6,3.1,39.6-28.5c3-31.5,18.7-49.1,47.9-57.2c11.9-3.4,23.5-8,35.5-11.1
						c21.5-5.5,39.8-0.4,54.4,17.5c7.6,9.4,16.9,17.4,27.2,28c8.2-7.9,14.6-13.5,20.7-19.8c5.6-5.6,10.1-12.2,16.4-16.9
						c33.8-27,120.1,5.8,127.9,48.4c1,5.5,0.7,11.3,1.5,16.9c3.4,22.4,9.8,30.4,30.8,23.7c41.5-13.1,62.8,9.6,84,38.4
						c21.3,28.8,31.3,55.7,7.7,89c-13.3,18.7-9.2,26,10.8,37.5c5.8,3.4,12,6.2,18.2,9c17.3,8,24.8,21.7,24.6,40.6
						c-0.3,28.1,0,56.2,0,88.9c11.4,0.7,23.1,2,34.8,2c122.8,0.1,245.6,0.1,368.5,0c362.8,0,725.7-0.1,1088.5-0.4
						c82.4-0.2,155,23.3,219.4,74.1c71.6,56.5,111,131.2,127.3,219.7c10.1,54.6,12.7,109.3,12.4,164.7
						c-0.8,147.6-0.3,295.2-0.3,442.9v41.9c11.4-7.1,17.2-11.8,23.7-14.5c9.2-3.6,20-9.7,28.3-7.6c26.1,6.3,51.6,14.8,76.3,25.4
						c17.1,7.4,20,25.4,21.8,43c3.2,31.7,8.2,37,37.9,29.4c30.4-7.8,50.1,3.4,66.9,26.2c6,8.1,11.6,16.7,17.7,24.7
						c17.6,23.1,19.6,45.7,3.6,71.6c-16.9,27.5-15.2,33.5,13.8,46c28.2,12.1,39.6,30.9,36.7,60.6c-1,13.5-1,27.1,0,40.6
						c1.3,23.4-9,38.7-30.3,47.3c-5.2,2.1-10.1,5-15.2,7.4c-15,7.3-20.9,19.5-10.4,32.8c31.1,39.5,11.5,70.8-13.2,102.7
						c-18.7,24.2-38.8,38.3-72.2,28.7c-25.6-7.4-34.2-0.5-34.7,25.7c-0.5,34-18.8,50.4-48,61.1c-33.8,12.3-66.6,22.3-101.8-13.9
						c-0.5,21.9-1.1,36-1.1,50.1c0,787.6-0.1,1575.2-0.3,2362.8c-0.3,24.7-2,49.4-5.1,73.9c-8.5,75.2-46.4,136.8-97,189.3
						c-53.7,55.6-122,87.9-198.9,99.9c-37.9,5.9-75.8,5.1-114.3,3.1c-51.5-2.6-103.4,3.4-155.1,3.4c-72.9,0-145.8-2.3-218.7-2.3
						c-60.9,0-121.7,2.1-182.6,2.5c-75.4,0.5-150.7,0-226.1,0s-150.6,0.4-225.9,0c-77.4-0.5-154.8-2.4-232.2-2.5
						c-61.9,0-123.9,2.1-185.9,2.5c-73.1,0.5-146.2,0-219.3,0c-80.9,0-161.8,0.4-242.8,0c-72.9-0.4-145.8-2.4-218.8-2.5
						c-61.9,0-123.8,2.1-185.9,2.5c-73.1,0.5-146.2,0-219.3,0c-75.3,0-150.6,0.3-225.9-0.2c-21.3,0-42.6-2.7-63.9-4.2
						c-3.4-0.2-6.8-1.2-10.1-1.1c-57.3,1.1-114.5,3.1-171.8,3.4c-77.8,0.6-155.5,0-233.1,0.2c-50.7,0.2-101.2,1.8-151.9,1.7
						c-83.1-0.2-166.3-1.7-249.4-1.5c-8.7,0-18.5,6-25.7,11.8c-7.7,6.2-12.9,15.4-19.3,23.4c-14.8,18.5-32.7,24.6-56.8,19.3
						c-34.9-7.6-38.4-4.7-41.6,31.7c-2.1,24.2-12.9,40.1-35.4,48.4c-12.6,4.7-25.2,9.7-38.1,13.7c-25.8,8.1-47.6,4.4-67.2-17.1
						c-23.9-26.3-28.2-25.9-52.5,2.3c-15.5,18-33.2,21.9-54.4,16.9c-13.1-3.1-25.8-7.9-38.8-11.8c-26.5-7.8-43-23.7-43.4-52.9
						c-0.3-3.4-1-6.7-2-9.9c-5.7-23.7-9.2-27-32-23.1c-19.1,3.4-38.9,9.9-54.5-5.7c-22.3-22.3-44.9-46.2-49.3-78.7
						c-1.7-12.6,7.5-27.5,13.8-40.3c12.3-25.1,12.4-30.4-13.7-40.9c-32-12.8-45.7-34.3-42.4-68.1c0.7-9,0.7-18,0-27
						c-1.6-28.3,10.4-46.2,37.2-57.5c31.8-13.5,33.1-17.6,15.6-47.3c-15.3-25.9-13.9-48.7,4-71.8c6.8-8.9,13.5-18,19.9-27.2
						c15-21.7,33.8-30.2,60.9-23.9c31.9,7.4,38.1,3.4,41.4-30.2c3-30.9,18.7-47.5,46.3-54.4c22.7-5.7,45.7-10,68.9-12.6
						c17.9-2,22-4.2,21.8-21.4c-1.3-111.6-3.2-222.9-3.6-334.3c-0.2-65.1,2.9-130.2,2.7-195.3c-0.7-13.2-5.4-25.9-13.5-36.4
						c-116.6-153.3-234.1-306-351.1-459.1c-84.1-110.1-168-220.4-251.7-330.9c-22.1-29.1-22.2-29-54.9-14.8
						c-152.4,65.9-311.9,97.8-477.5,87.9c-237.7-14.1-449.9-95.7-632.2-251.1c-184-156.8-302.8-353.3-352.6-589.2
						c-57.9-275.1-13.9-536,134.2-775.5c158.9-256.9,389.1-420.5,684.8-482.5c324.3-68,619.4,4.6,880.4,208.6
						C-637.2-547.9-523.8-384.3-457-190.2c82.5,240,77.3,480-9.9,718.5c-39.9,109-98.9,207.1-171.2,297.5c-5.6,7-10.9,14.2-19.2,25
						c91.3,124.5,186.7,246.3,284.9,376.2c2.2-16.5,4.3-24.7,4.3-33c0.3-52.8-0.3-105.6,0.3-158.4c0.9-87.7,3.2-175.3,3.6-263
						c0.2-47.3-3.7-94.4-3.4-141.6c0.6-132.7,2.6-265.4,3.4-398.2c0-23.7-3.4-47.1-3.4-70.7c-0.3-196.9-0.3-393.7,0-590.5
						c0-68.5,3.4-137,3.4-205.5c0-64.2-2.6-128.3-3.6-192.4c-0.7-67.5,5.3-134.8,17.8-201.1c33.4-181.9,197.5-282.8,336.6-282.2
						c482.2,2,964.5,0.8,1446.9,0.8L1470-1308.9z M1822.5,2910.1L1822.5,2910.1h1791.4c13.5,0,27,0.3,40.6-0.2
						c130.6-4.9,232-89.2,258.4-216.4c4.7-22.9,4.4-47,4.5-70.6c0.2-618.5,0.3-1237.1,0.2-1855.6c0-571.3-0.1-1142.5-0.2-1713.7
						c0-24.6,0-49.9-4.8-73.9c-28.8-140.4-153.2-211.9-264.8-211.8c-1204.4,1.3-2408.9,1.6-3613.3,1c-6.8,0-13.5,0-20.3,0.2
						c-27,1.4-28.1,3.9-26.6,30.1c1.7,29.2,2.3,58.5,1.6,87.7c-0.9,37.2-5,74.1-5.4,111.1c-1.3,119.3-1.5,238.6-2.1,357.9
						c0,29.1,0.5,58.1-0.3,87.2c-0.6,21.3-4.2,42.5-4.4,63.8c-1.7,169.9-3,339.7-4.1,509.6c-1.1,146.3-2,292.5-2.8,438.8
						c0,6.8,0,13.5,0,20.3c0,43.9,0.8,87.6-0.3,131.3c-1.1,43.7-5.6,87.3-6.2,131c-2.8,214.9-4.2,429.8-7.2,644.7
						c-2.7,194.8,1.9,389.4-5,584.3c-8.6,241.9-6.1,484.1-8.2,726.2c-0.4,53,0,105.9,0,158.9c0,6.8,0,13.5,0,20.3
						c1.2,26.6,4.4,31.3,30.8,35c17.9,2.1,35.9,3,53.9,2.6C626,2910.1,1224.3,2910.1,1822.5,2910.1L1822.5,2910.1z M-517.1,157.1
						c7.5-502.3-403.1-945.8-939.5-948c-505.8-1.9-949,396.1-949.5,946.1c-0.5,532.2,430.1,941.3,941,944.7
						S-512.5,683.4-517.1,157.1z M-378.5,1742.5l10.5-4.1c1.3-34.4,3.7-68.8,3.4-103.2c-0.3-59.5-2.9-119-3.4-178.6
						c0.5-20.2-6.1-40-18.5-55.9c-48.9-63.1-97-127-145.1-190.7c-4.9-7.3-9.4-14.9-13.5-22.7l-161.2,124L-378.5,1742.5z
						 M1728.4-1640.1c-5.2,16-8.7,24.1-10.5,32.7c-10.5,50.2-46.1,75.6-96.6,69.5c-8.1-0.9-22.1,0-24,4.4
						c-3.4,7.5-0.3,18.4,1.9,27.4c3.1,12.9,13.3,26.3,11.1,37.8c-6.1,31.3-10.3,64.2-48.2,78.9c-22.4,8.6-20.3,26.1,1.3,39.2
						c9.5,5.7,20.3,10.8,27.7,18.6c24.9,26,33.8,28.7,70.5,15.7c-1.5-9.5-2.6-19.4-4.7-29.2c-14.6-69.6,29.9-140.8,86.3-168.2
						c59.2-28.7,117.3-22.8,168.6,16.9c51.3,39.7,69.6,95.1,58.1,159.5c-1.5,8.3-2,16.9-3.4,29.5c21.3-2.1,44.8,2.6,54.9-7
						c17.2-16.2,33.5-31.6,54.7-42.7c11.4-5.9,9.5-17.5,0.9-25.6c-5.6-5.2-13.9-7.4-20-12.2c-8.7-6.8-20-13.1-23.9-22.3
						c-12.4-28.9-24.9-58.4-3.9-89.9c4.6-6.8,4.8-19.7,1.4-27.2c-1.8-4-16.3-4.7-24.1-2.9c-21.5,5-38.9-0.3-57.2-12.2
						c-24.3-15.8-40.9-34.2-41-65c0-6.3-5.8-16.3-11.1-18c-5.2-1.7-13.5,4.6-20.1,7.8c-1.9,0.9-2.9,3.4-4.5,4.9
						c-33,33.5-81.5,33.8-116.5,0.8C1748.9-1625.4,1740.8-1630.6,1728.4-1640.1z M-423.7,2598.2c-3.1,10.4-7,20.5-9.1,30.9
						c-8.9,44.3-48.2,71.8-93.4,66.1c-9.1-1.2-22.8-0.8-27,4.6c-4.3,5.4-0.8,18.8,2.9,27c20.5,46.2,7.7,88.9-35.6,114.1
						c-23.7,13.8-23.7,27.7,0,41.4c43.2,25.3,57.3,70,35.7,113.5c-1.5,3-3.4,5.9-4.7,9c-7.1,18.8,0,27.6,20.7,25.6
						c4.5-0.4,8.8-2.2,13.2-2.9c37.2-5.7,80,24.8,87.9,61.6c2.6,12.4,7.1,24.3,12.4,41.8c12.6-10.1,21.3-15,27.5-22.2
						c14.5-16.9,32.4-22.2,54.1-22.4c25-0.3,46.2,4.3,62.8,25.3c5.3,6.8,16.7,8.7,25.3,12.9c3.4-7.7,9.6-15.3,9.8-23.1
						c0.8-26.5,13.5-44.4,35.6-57.2c13.1-7.5,25.6-16.3,38.5-24.7c-31.2-29.4-62.5-47.3-100.5-14.1c-1.9,1.2-3.9,2.2-6.1,2.8
						c-79.2,34.1-173.6-2.6-207.6-80.3c-43.6-99.6,18.5-187.5,84.9-213.8c9.3-3.7,18.4-7.7,26.7-11.2
						C-363.1,2641.1-376.2,2614.5-423.7,2598.2z M4002.5,149.9c5.6,10.1,9.9,21.4,17.4,29.7c10,10.5,21.1,19.9,33.1,28
						c6.8,4.7,15.7,9.1,23.3,8.6c3.6-0.2,8.1-12,9.4-19.1c9.2-53.9,45.2-81.1,98.3-74.9c8.1,0.9,22.2-0.5,24-4.7
						c3-9.1,2.1-19-2.5-27.3c-13.2-21.3-11.8-41.8-5.1-64.6c7.1-24.2,18.3-41.7,42.9-52c23.7-10.1,23.2-24.2,0.9-37.9
						c-3.9-2.3-7.9-4.3-12-6.1c-14.3-6.5-21.7-17.9-27-32.5c-10.1-27.4-15.8-53.6,2-80.5c4.1-6.2,5.5-19.2,1.7-24.3
						c-3.8-5.1-15.9-5.7-23.9-4.8c-51.4,6.2-90.6-21.9-98.6-71.6c-0.9-5.5-0.2-13.2-3.4-16c-5-4.2-15.6-8.8-19-6.4
						c-18,13.1-35.2,27.1-51.8,42c-2.9,2.6-3.8,8-4.7,12.3c-6.3,31,1.5,43.9,32.5,54.9c71.5,25.1,113.4,85.9,110.4,160
						c-2.7,66.8-43.1,118.6-112.9,144.7C4008.8,118,4006.3,121.4,4002.5,149.9z M-739.2,937.5l-159.8,121.1
						c36.7,48.1,72.1,94.7,107.6,140.9c8.2,10.8,18,12.4,29.4,4.8c48.6-32.5,96-66.5,141.5-110.6L-739.2,937.5z M1811.5-1309
						c13.5,0,27-0.7,40.3,0c20.9,1.3,33.4-8.5,41.5-27c16.2-37.3,4.5-80.9-28.2-105c-30.4-22.8-79.4-20.5-109.3,5.2
						c-27.9,23.7-36.1,71-19,105.1c7.3,14.5,17.5,22.5,34.3,21.8C1784.6-1309.5,1798.1-1309,1811.5-1309z M-358.8,2783
						c-40.2,9.2-59.7,31.9-62.3,70.3c-3.1,44.3,15.7,74.4,55.7,89.7c33.3,12.7,60.5,6.4,80.5-19.1c-13.9-22.6-29.3-44.7-41.7-68.3
						C-339,2831.9-348.4,2806.9-358.8,2783L-358.8,2783z M4014.5,32.8c37.4-5,64.8-39.7,63.8-80.4c-1-39.9-28.3-72.2-64.2-76.2
						C4002.9-95.9,4003.2,6.6,4014.5,32.8z"/>
					<path d="M4803.1-56.9c9.4-10,16.1-17.1,22.9-24.2c4.4-5.1,9.2-9.9,14.3-14.3c33-24.8,118.1,7.6,126.2,48.1
						c1.3,6.6,0.9,13.5,1.9,20.3c3.2,20.3,8.7,24.7,29.3,22.9c6.7-0.9,13.3-2.2,19.9-3.9c30.4-6.1,45.9,14.7,60,35
						c15.6,22.3,38.4,43.2,23.7,75.8c-6.3,13.9-16.9,30.1-13.8,42.6c2.4,10.1,21.4,17.2,33.8,24.1c15.4,8.5,23.1,20.7,23,38.1
						c-0.6,11.3-0.4,22.6,0.4,33.8c4.3,36.5-5.5,63-43.5,76.8c-20.7,7.6-21.4,16.4-10.4,37.5c8.8,16.9,22,33,12.2,53.4
						c-13.8,28.6-29.7,56.6-58.2,72.5c-9.3,5.2-24,2.9-35.8,1.3c-33.8-4.7-38.6-2.9-40.6,30.1c-1.7,27.4-14.6,43.9-39.4,52.8
						c-13.8,4.9-27.5,10.1-41.6,13.8c-22.4,5.8-42.4,1.9-57.8-17.3c-3.7-4.3-7.6-8.3-11.8-12.1c-10.9-10.4-23.9-12-31.9,0.6
						c-26.6,41.6-61.2,31.9-98.4,19.6c-29.9-9.8-47.3-25.6-50.5-59.1c-2.9-31.8-8.4-34.7-39.6-27.5c-28.2,6.5-48.3-1.8-63.9-25
						c-5.6-8.4-12-16.3-17.9-24.5c-17.4-24.1-21.2-47.7-3.4-74.7c17.8-27,15.8-31.6-14.8-44.6c-29.2-12.4-41.6-32.6-38.9-63.4
						c0.5-5.6,0.5-11.3,0-16.9c-3.4-35.2,6.5-60.9,43.4-73.9c24-8.6,26.5-17.3,12.5-38.2c-21.3-31.6-15.9-58.9,6.8-86.1
						c7.2-8.7,13.5-18,20.7-26.7c12.5-15.2,28.2-21.7,48-17.1c7.7,1.8,15.4,3,23.3,3.8c11.9,1.1,19.2-4.5,21.8-16.3
						c0.7-3.4,1.5-6.6,2.3-9.9c4-18.3,1.3-41.4,22.5-49.7c26.9-10.7,54.9-18.6,83.4-23.7c9.1-1.6,21.4,9.9,30.8,17.3
						C4783.5-78,4792.1-67.9,4803.1-56.9z M4716.2,507.9c13.3-10.1,22.7-15.4,29.6-23.1c13.9-15.4,30.4-20.8,50.9-21.6
						c27.9-1.1,50.7,5.4,68.3,28.5c4.4,5.7,15.5,9,23,8.2c3.8-0.4,8.7-12.4,8.9-19.2c0.7-25.9,12-43.6,33.4-58.6
						c21.4-14.9,42-22.6,69-15.6c21.2,5.5,29-6.8,20.7-27.3c-1.3-3.1-3.4-5.9-4.7-8.9c-19.8-41.2-3.7-88.6,36.8-111.6
						c7.8-4.4,18.4-13.7,18-20.1c-0.5-7.4-11.3-14.6-18.5-20.9c-9.2-7.9-23.7-12.6-28.3-22.4c-13.9-29.3-27.5-59.7-6.2-92.7
						c4.5-8.5,5.3-18.4,2.2-27.5c-1.5-3.8-15.9-4.7-24-3.6c-50.7,6.4-89.6-22.3-97.8-72.7c-0.2-3.4-0.7-6.8-1.4-10.1
						c-4.1-14.1-13.5-17.9-25.1-9.5c-4.2,3.7-8.2,7.7-11.7,12c-29.5,30.1-81.1,30.8-111.9,2.1c-8.3-7.7-18.1-13.8-31.9-24.2
						c-4.6,18.3-6.8,30.2-10.6,41.4c-3.4,10.3-6.4,22.8-13.8,29.6c-23.2,21.2-46.5,41.8-83.6,30.8c-23.2-6.8-31.4,5.7-22,28
						c1.8,4.2,4.3,7.9,6.2,12c16.7,35.6,0.6,85.3-34.1,104.4c-9.8,5.4-21.7,8.6-21.9,22.6c-0.2,14,10.9,18.6,21.4,22.9
						c19.5,7.9,28,23.3,34.4,42.7c8.6,25.9,13.5,49.9-5.3,73.2c-2,2.8-3.4,5.9-4.1,9.2c-3.7,13.5,2.5,21.7,16.9,21.6
						c5.6-0.5,11.1-1.5,16.6-2.9c39.6-6.3,82.1,23.5,90,62.4C4707.6,478.8,4711.4,490,4716.2,507.9z"/>
					<path d="M4614.3,1146.8c10.1-11.1,16.9-18.6,23.7-25.8c4.4-5.1,9.3-9.8,14.6-14c33.8-23.7,117.7,10.5,125.1,51
						c0.8,4.4,0.6,9,1.2,13.5c3.4,26.6,9.4,33.6,34.7,26.3c35-10.1,56.1,5.3,74.4,31.1c5.8,8.2,11.3,16.9,17.1,25.1
						c14.6,20.7,14.3,40.6,1.5,62.9c-18.6,32.1-17.8,35.5,15.2,50.5c25.3,11.5,35.8,28.6,33.8,55.6c-0.9,14.6-0.9,29.3,0,43.9
						c1.3,23.3-8.9,38.7-30.2,47.3c-5.2,2.1-10.1,4.9-15.2,7.4c-14.9,7.3-21.1,19.4-10.6,32.8c31,39.4,11.8,70.7-13,102.7
						c-18.7,24.1-38.6,38.4-72.1,28.9c-26.6-7.6-33.8-0.9-35.2,28.7c-1.3,28.9-15.1,46-41.2,55.1c-11.7,4.1-23.3,8.5-35.2,11.9
						c-24.7,7.1-45.5,2.9-64.2-17.3c-24.8-27-28.9-26.8-52.5,1c-16.4,19.3-35.2,22.8-57.5,16.9c-14.1-3.7-28-8.6-41.8-13.3
						c-22.3-7.5-36.4-21.6-37.2-46.6c-0.3-6.8-2.7-13.2-3.8-19.9c-2.5-15.4-11.7-20.9-26.4-18.3c-6.8,1.1-13.3,2.7-19.8,4
						c-18.1,4.4-37-2.4-48-17.4c-7.1-8.8-13.8-17.8-20.6-26.7c-21.1-27.5-28.3-54.5-5.5-86.1c14.5-20.1,11.4-28.6-13-37.9
						c-33.8-12.9-46.8-36-43.5-70.8c0.7-10.1,0.8-20.3,0.2-30.4c-0.5-24.2,10.1-40.8,32.7-49.8c6.3-2.5,12.4-5.4,18.3-8.7
						c11.3-6.4,16.5-15.2,9.2-27.9c-0.6-1-1.1-2-1.6-3c-9.2-17.7-25.9-35.7-14.7-56.1c14.1-25.4,31.3-49,51.1-70.3
						c7-7.5,25.2-7.8,37.6-6.4c39,4.5,42.3,4.6,46.7-32c3.4-27.3,16-43.3,41.3-51.1c9.7-3,19.1-6.8,28.7-10.1
						c28.4-10.1,52.9-6.8,71.8,19.5C4595.8,1131.3,4604.2,1137.2,4614.3,1146.8z M4526.8,1712.4c13.9-11.1,22.6-16.1,28.9-23.3
						c14.5-16.9,32.3-22.2,54.1-22.4c24.9-0.2,46.2,4.1,62.8,25.2c5.3,6.8,16.7,8.8,25.3,13c3.4-7.6,8.9-15,10.1-23
						c7.9-50.2,46.3-78.7,97.5-72.4c8.2,1,22.1,0,24.2-4.2c3.2-8.9,2.5-18.7-1.8-27c-10.5-18.9-13.5-36.8-7.4-58.1
						c7.7-27,17.5-51.2,47.7-59.8c2.1-0.8,4.1-1.9,5.9-3.4c11.1-8.5,11.8-19,1-28c-6-4.9-14.2-7.1-20.3-12
						c-8.6-6.8-19.4-13.5-23.3-22.9c-12.2-29-24.2-58.8-2.5-89.8c4.3-6.1,5.7-19.1,2.1-24.3c-3.7-5.3-16.3-6.8-23.7-4.9
						c-24.2,6.4-43-1.3-63-14.6c-22.4-15-36.8-32.5-36.4-60.2c0.1-3.4-0.5-6.9-1.6-10.1c-4.2-11.9-13.3-15.2-23.7-8.1
						c-4.4,3.5-8.4,7.5-11.9,11.8c-31.3,31.6-82.1,32.2-114.2,1.4c-7.6-7.1-16.4-12.9-29.4-22.9c-4.8,16.6-9.6,26.8-10.5,37.2
						c-1.7,19.6-11.4,32.7-26.4,44.7c-22.3,17.9-44.3,28-74.4,19.7c-20.8-5.8-28.8,7-20.5,27.3c1.3,3.1,3.1,6,4.6,9
						c19.3,39.8,4.5,87.7-33.8,109.7c-7.9,4.6-17.1,12.3-19.3,20.3c-3.6,13.5,8.8,19.1,19.5,23.4c19.5,7.7,28.8,22.4,35.2,42.1
						c8.8,27,14.1,52.1-6,76.2c-0.7,0.9-1.2,1.9-1.5,3c-6.5,17.5-0.5,26.6,17.5,25.9c4.4-0.6,8.9-1.4,13.2-2.5
						c41.8-6.8,83.2,22.7,91.3,64.2C4518.3,1683.4,4521.7,1693.8,4526.8,1712.4z"/>
					<path d="M428.2,802.4c0-449.6,0-899.2,0-1348.9c0-24.7,0-49.4,11.5-72.5c25.5-50.5,64.2-80.4,122.5-80.5
						c110.4,0,220.9,0.7,331.3-0.3c76.1-0.6,133.9,63.6,133.5,135.8c-1.7,308.7-0.9,617.5-1.1,926.3c0,12.4-0.2,24.8,0.2,37.2
						c1.9,58,33.6,92.3,91.7,96.4c29.1,2.1,58.6,1.2,87.9,0.7c69.8-1.3,139.6-3.5,209.4-4.5c24.9-0.4,46.2-6.4,64-24.8
						c15.6-16.2,25.3-34.2,25.1-57.1c0-12.4,0.2-24.8,0.2-37.2c0-304.3,0.1-608.5,0.3-912.8c-0.4-21.4,1.9-42.7,6.8-63.5
						c14.3-55.5,63.8-94.7,121.1-95.8c114.9-1.1,229.9-1.1,344.8,0c68.3,0.7,121.1,53.1,128.5,124.2c1.1,14.6,1.4,29.3,1,43.9
						c0,305.3,1.2,610.7-0.7,916.1c-0.5,76.5,32.6,108,107.2,107.5c289.6-2,579.2-0.9,868.8-0.6c20.2-0.5,40.3,1.2,60.1,4.9
						c56,11.9,91.7,55.6,94.3,112.6c0.5,11.3,0.3,22.5,0.3,33.8c0,500.3-1.5,1000.7,1.3,1501c0.5,94.4-54.3,148.7-148.1,148.7
						c-838.4-2.3-1676.7-2.3-2514.9,0c-94.4,0.2-148.7-55-148.2-148.7C430,1697.2,428.2,1249.8,428.2,802.4z M2674.6,1391.3
						L2674.6,1391.3c0-42.8-2.5-85.7,0.5-128.2c6.1-84.2-73.1-152.3-148.3-149.8c-85.4,2.9-171,2.6-256.5,0
						c-85-2.5-151,67.8-150.1,148.4c1,87.7-0.5,175.5,0.4,263.2c1,85.2,61.7,146.9,147.1,148.4c87.7,1.6,175.5,1.6,263.3,0
						c82.1-1.4,141.8-62.1,143.3-143.9C2675.3,1483.6,2674.6,1437.4,2674.6,1391.3z"/>
					<path d="M-603.3,148.3c5.1,465.1-379.4,857.4-858.7,856.5c-495.5-0.9-848.8-405.4-849.2-849.7c-0.5-485,407.5-856.6,860.1-856
						C-982.3-700.3-598-313.2-603.3,148.3z"/>
					<path d="M4961.6,239.6c-0.4,88.1-72.1,159.7-159.4,158.9c-79.2-0.8-156.4-58.1-160-158.9c-3-84.3,73.8-160.5,158.6-161
						c88.6-0.2,160.6,71.5,160.8,160.1C4961.6,238.9,4961.6,239.3,4961.6,239.6z M4717,239.6c0.5,48.7,37.7,86.8,84.8,86.7
						c47.2-0.1,88.3-41.4,87.9-88.7c-1-48.2-40.8-86.5-89.1-85.5c-0.2,0-0.5,0-0.7,0C4750.5,153.6,4716.5,189.5,4717,239.6
						L4717,239.6z"/>
					<path d="M4772.3,1441.7c0,88.2-70.7,160.3-158,160.2c-81.1,0-159.5-59.7-161.4-160.9c-1.6-85.3,75.8-159.8,160.5-159.1
						C4701.2,1282.8,4771.9,1353.9,4772.3,1441.7z M4527.7,1441.7c0,49.1,35.9,87,83.5,88.1c47,1,88.8-40,89.2-87.4
						s-40-87.6-88.4-87C4562.9,1356.1,4527.7,1392,4527.7,1441.7L4527.7,1441.7z"/>
				</g>
			</g>
		</g>
	</g>
</g>
</svg>
