<svg id="Layer_1" data-name="Layer 1" xmlns="http://www.w3.org/2000/svg" viewBox="0 0 748.58 843.71">
  <g>
    <path d="M845.24,434q0,86.64,0,173.27c0,19.28-5.21,36.56-18.91,50.46a81.19,81.19,0,0,1-16.79,13.21Q659.75,757.79,509.71,844.3c-26.11,15.07-52.2,14.58-78.18-.45Q298.23,766.78,164.9,689.73c-10.08-5.83-20.12-11.74-30.27-17.45-26-14.65-37.94-37.22-37.93-66.64l0-279.62c0-21.31.08-42.61,0-63.92-.13-30.26,12.48-52.75,39.07-68q143.69-82.53,287-165.75c11.56-6.69,23.08-13.26,36.47-15.62,17.89-3.14,34.4.9,49.86,9.77q55.83,32.07,111.52,64.4,93.57,54,187.15,108.09c24.8,14.29,37.47,35.5,37.45,64.23q-.06,87.39,0,174.77ZM300.66,596c-.2,18.45,1.7,36.59,9.43,53.61,9.26,20.36,24.65,31.54,47.67,31.43,19.05-.09,36.21-6.46,52.76-15,21.48-11,40.47-25.6,57.93-42.17,3-2.84,4.74-2.51,7.79.07,12.07,10.19,24,20.61,36.82,29.82,17.81,12.81,37.22,22.64,59.16,26.55,28.36,5,49.33-6.16,60.88-32.53,6.51-14.88,8.83-30.65,9.48-46.66,1-23.42-2.23-46.46-7.48-69.23-.93-4-.12-5.73,4-7.18,13-4.57,26.05-9.23,38.63-14.85,21.74-9.72,41.72-22.22,57.39-40.63,19.3-22.66,19.89-47.84,1-70.68a123.34,123.34,0,0,0-19.83-18.85c-23.28-17.92-50.08-28.78-77.94-37.19-4.55-1.37-5.56-3.27-4.49-7.8,5.47-23.06,8.57-46.45,7.69-70.19-.61-16.36-3.05-32.42-9.81-47.58-9.65-21.64-26.5-32.13-50.19-31.26-14.28.53-27.41,5-40.12,11-24.18,11.42-45.14,27.44-64.54,45.64-5.34,5-5.25,4.81-10.71.12-8.58-7.37-17.05-14.92-26.12-21.65-22.22-16.5-45.85-30.07-73.88-34.35-23.09-3.53-42.53,5.54-53.72,25.93-7.86,14.32-10.69,30-11.56,46.07-1.4,25.6,1.81,50.8,7.86,75.64,1.12,4.59.29,6.38-4.51,8.14C287,348.63,269.63,355,252.91,362.74a132,132,0,0,0-45.65,34.15C191,416,187.64,438.33,199.87,458.21a113.5,113.5,0,0,0,21.54,25.29c23.81,20.92,52.45,33.1,82.4,42.31,4.77,1.47,5.89,3.14,4.71,8C303.57,554.22,300.49,574.91,300.66,596Z" transform="translate(-96.7 -11.65)"/>
    <path d="M468.84,522.75c-14.63,0-29.26.16-43.88-.17a9.78,9.78,0,0,1-6.87-3.64,655.14,655.14,0,0,1-47.17-81,9.06,9.06,0,0,1,0-8.88,720.58,720.58,0,0,1,46.38-80.31c1.92-2.89,4.2-4.5,7.72-4.5,30.92,0,61.84-.07,92.75.21,2.46,0,5.77,2,7.2,4.11a656.17,656.17,0,0,1,47,81.08,9.53,9.53,0,0,1,0,7.34,676.93,676.93,0,0,1-47,81.69,9.91,9.91,0,0,1-6.78,3.81c-16.44.83-32.89,1.2-49.34,1.71C468.85,523.73,468.85,523.24,468.84,522.75Zm3.08-138.92c-27.57-.12-50.36,21.63-50,48.88.38,30.32,24.19,49,48.49,49.48,24.76.55,49.61-18.25,50.26-49.2C521.23,406.28,498.61,384,471.92,383.83Z" transform="translate(-96.7 -11.65)"/>
    <path d="M343.48,433.73c-.67,1.72-1.16,2.95-1.64,4.19-8.06,20.94-16.21,41.85-24.08,62.86-1.38,3.68-2.81,5-6.79,3.74-25.05-7.94-49.26-17.75-70-34.24a106.7,106.7,0,0,1-20.37-21.64c-8.28-11.71-7.17-22.4,1.53-34.12,8.81-11.88,20.63-20.2,33.2-27.52,17.64-10.26,36.53-17.57,56-23.35,3.26-1,5-.65,6.34,3,7.9,21,16.07,41.92,24.15,62.86C342.47,431,343,432.51,343.48,433.73Z" transform="translate(-96.7 -11.65)"/>
    <path d="M323.05,596.35c.22-19.71,3.14-39.05,7.62-58.21.83-3.56,2.28-4.53,5.82-4,22.66,3.38,45.35,6.54,68,10a9.27,9.27,0,0,1,5.28,3.06C424.44,565,439,583,453.53,601c1.44,1.78,2.86,3.33.52,5.48-24.44,22.49-50.36,42.55-83.5,50.71a50.34,50.34,0,0,1-8.36,1.32c-17.83,1.21-28.53-6.56-34-24.21C324.35,621.88,323,609.23,323.05,596.35Z" transform="translate(-96.7 -11.65)"/>
    <path d="M621.62,592.86c-2.36,13.54-3.44,26.93-7.17,39.53-7.17,24.27-20.21,30.7-45.51,24.05-22.3-5.87-41-18.73-58.79-32.83-6.38-5.05-12.26-10.72-18.44-16-2.62-2.24-2.93-4-.55-7,14-17.5,27.74-35.24,41.77-52.74a12.06,12.06,0,0,1,6.77-4.08c22.76-3.74,45.57-7.11,68.35-10.74,3.82-.61,4.68,1.6,5.1,4.37Q617.45,565.14,621.62,592.86Z" transform="translate(-96.7 -11.65)"/>
    <path d="M359.19,208.48c13,.86,25.74,5.65,37.93,11.93C417.67,231,435.8,245,452.68,260.75c2.54,2.37,2,3.79.06,6.14-14.41,17.64-28.6,35.46-43.07,53.05a11.58,11.58,0,0,1-6.6,3.62c-22,3.57-44,6.8-65.95,10.31-3.74.59-5.34-.35-6.2-4.17-5.73-25.59-10.09-51.36-6.58-77.61a121.46,121.46,0,0,1,7.74-28.19C336.27,213.31,346.13,208.23,359.19,208.48Z" transform="translate(-96.7 -11.65)"/>
    <path d="M619.26,270a301.55,301.55,0,0,1-7.4,60.39c-.84,3.64-2.32,4.28-5.88,3.69-21.93-3.59-43.93-6.81-65.86-10.46a13,13,0,0,1-7.35-4.18c-14.22-17.36-28.11-35-42.24-52.4-2.06-2.53-2.56-4.16.07-6.6,19.36-17.95,40-34.13,64.27-44.95,9.61-4.28,19.53-7.26,30.29-7.32,10.6,0,18.13,4.55,23.43,13.34,6.51,10.83,8.52,23,9.82,35.23C618.91,261.53,619,266.35,619.26,270Z" transform="translate(-96.7 -11.65)"/>
    <path d="M727.53,430.61c-.48,10.45-3.44,17.5-8.8,22.82-7.85,7.8-16,15.56-25.07,21.82-18.6,12.84-39.52,21.09-61,27.94-3.61,1.15-5.2.36-6.63-3.3-8.24-21-16.87-41.91-25.12-62.93a11.26,11.26,0,0,1,0-7.45c7.85-20.65,16-41.19,24-61.79,1.09-2.82,1.76-5.13,5.86-3.87,27.49,8.48,54,18.95,76.45,37.55a85.3,85.3,0,0,1,15,16.51C725.23,422.21,726.41,427.79,727.53,430.61Z" transform="translate(-96.7 -11.65)"/>
    <path d="M586.42,460.09c3.09,7.22,5.79,13,8.08,19,3.4,8.83,6.55,17.76,9.74,26.67.81,2.27,1.53,4.72-2.06,5.3q-23.79,3.9-47.59,7.74c-.28,0-.61-.21-1.59-.58C563.89,499.28,574.73,480.44,586.42,460.09Z" transform="translate(-96.7 -11.65)"/>
    <path d="M389.28,520.13l-51.21-8.25c5-17.83,11.44-33.93,18.48-51,11.59,20.06,22.49,38.9,33.38,57.74Z" transform="translate(-96.7 -11.65)"/>
    <path d="M505.69,546.72c-4.64,6.08-8.44,11.26-12.46,16.27-5.62,7-11.46,13.8-17.1,20.78-2.45,3-4.43,4-7.38.34-9.23-11.33-18.71-22.46-28.06-33.7a31.49,31.49,0,0,1-2.17-3.69Z" transform="translate(-96.7 -11.65)"/>
    <path d="M504.38,320.46H438c2.68-3.73,4.58-6.74,6.84-9.45,7.66-9.19,15.51-18.22,23.15-27.43,2.5-3,4.38-3.34,7-.1,8.89,11,18,21.78,26.94,32.69A31.83,31.83,0,0,1,504.38,320.46Z" transform="translate(-96.7 -11.65)"/>
    <path d="M554,348c6.68,1,13.38,1.87,20,3,8.82,1.56,17.6,3.41,26.42,5,2.7.49,4,1.75,3,4.43q-8,21.51-16.08,42.95c-.2.55-.83.94-1.71,1.9l-32.37-56.05Z" transform="translate(-96.7 -11.65)"/>
    <path d="M389.66,348.64c-11.07,19.23-21.77,37.79-33.09,57.45-2.54-6.16-4.82-11.25-6.75-16.48-3.44-9.34-6.66-18.76-10-28.14-.94-2.65-1.21-5,2.44-5.59q22.05-3.83,44.09-7.61A15.6,15.6,0,0,1,389.66,348.64Z" transform="translate(-96.7 -11.65)"/>
  </g>
</svg>
