<svg id="Layer_1" data-name="Layer 1" xmlns="http://www.w3.org/2000/svg" viewBox="0 0 229.98 206.42">
  <path d="M454.26,303.9l14.53-23.82a22.22,22.22,0,0,1,1.74,3.1c8.61,25,15.93,50.25,17.59,76.85a30.58,30.58,0,0,0,2.68,10c3.59,8.32,3.78,16.56-.7,24.41-15,26.21-29.92,52.42-45.35,78.36-4.63,7.78-12.31,12-21.69,12-29.7.06-59.4.16-89.1-.06a25.25,25.25,0,0,1-22.63-13.08c-14.56-24.91-28.89-50-43.4-74.9-5.89-10.11-5.9-20,0-30.14q21.24-36.57,42.3-73.24c6-10.39,14.91-15,26.72-14.91q41.57.15,83.13,0c11.88-.05,20.75,4.77,26.63,15.1,1.87,3.3,3.83,6.54,5.76,9.81Zm4.15,46.41c-3.26,15.2-11.08,29.27-21.26,42.17-18.88,23.93-43.42,39-72.83,46.56-7.15,1.84-14.11,4.45-21.15,6.71,4.27.52,8.35.14,12.44.13,20.37-.1,40.77.59,61.1-.34,17.54-.8,34.09-5.78,46.87-19,15.79-16.26,19.68-36.81,19.63-58.3,0-24.09-5.77-47.28-13.09-70.1-.52-1.64-1.25-3.21-1.91-4.88a7.05,7.05,0,0,0-1.4.76,12.16,12.16,0,0,0-1.21,1.57c-15.62,23.77-37.87,37.83-65.51,42.84-13.47,2.45-27.37,2.46-41,4-26.63,3.1-50.15,22.22-52.87,50.51-1.39,14.46,1.46,27.94,14.33,37a12.27,12.27,0,0,0,8.71,1.65c13.93-3,27.83-6.24,41.58-10,27.27-7.51,50.49-21.86,68.58-43.65C446.73,369.17,452.48,359.05,458.41,350.31Zm-143,106.31a8.7,8.7,0,0,0,.31-17.4c-4.6-.07-8.87,4.2-8.92,8.9A8.79,8.79,0,0,0,315.41,456.62Z" transform="translate(-263.5 -278.47)"/>
</svg>
