<svg id="Layer_1" data-name="Layer 1" xmlns="http://www.w3.org/2000/svg" viewBox="0 0 212.63 235">
  <g>
    <path d="M344,594.88V517.21c2.51-9.49,10.69-8,17.84-8.44V415.11c0-15.14,10-25.29,25.1-25.31,33.67-.05,67.34-.1,101,.14a12.38,12.38,0,0,1,8,3.67q20.37,21.48,40.14,43.53a12.17,12.17,0,0,1,3,7.3c.24,19.57.13,39.16.13,58.74v5.5c1.56.16,2.51.33,3.47.36,12.15.4,14,2.27,14,14.43q0,29.63,0,59.25c0,3.81.16,7.65-.15,11.44-.46,5.7-3.62,8.6-9.32,8.91-2.46.13-4.94,0-7.67,0-2.24,11.72-9.36,18.53-20.27,21.67H381.82c-11.06-3.07-18.09-10.07-20.36-21.69C353.93,603.48,346.59,603.92,344,594.88Zm24.86-86.22H531.79V452.34c-5.62,0-10.92.29-16.17,0-17.87-1.15-27.26-10.93-27.29-28.09,0-7.3,0-14.59,0-21.89,0-1.74-.15-3.49-.22-5.05a9.89,9.89,0,0,0-1.56-.38c-33.49,0-67-.14-100.46,0-10.29,0-17.2,7.53-17.21,17.87q0,38.31,0,76.63Zm.58,94.71c1.84,9.43,8.23,14.3,18.37,14.31q50.19,0,100.39,0c8.78,0,17.57.12,26.34,0,9.27-.17,16.07-6,16.7-14.28Zm99.69-35.75c3.92-7.85,3.79-15.57,1.42-23.43a12,12,0,0,0-10.21-8.93,55.21,55.21,0,0,0-12.26-.15c-6.35.49-10.65,4.19-11.55,10.39-.84,5.8-1.34,11.93-.4,17.66,1.43,8.65,8.93,12.73,17.93,11.05a7.37,7.37,0,0,1,3.36-.1c4.07,1.25,8.09,2.7,12.25,4.12,1.43-3.07,2.46-5.29,3.53-7.61Zm-56-22.12.94-1.06h14.58c.44-2.58.89-5.27,1.41-8.29-7.94-1.68-15.5-3-22.87-.48a11.74,11.74,0,0,0-6.26,6.28c-4.12,11.12,1.06,18.48,12.93,19.08,3,.15,5.92.12,4.44,4.55H400.9c-.45,2.63-.91,5.3-1.54,9.06,8.76,0,16.76.32,24.72-.21,2.15-.14,4.85-2.39,6.09-4.42,5.74-9.35.75-19.42-10.05-20.88-1.15-.16-2.52.18-3.41-.35A21.44,21.44,0,0,1,413.09,545.5Zm83.35-141.12-1.06.55c0,7.29-.27,14.58.08,21.85.32,6.57,2.82,12.37,9.06,15.51,8.78,4.41,18.15,3,27.35,2.9l.78-1.36ZM476.87,535.47v39.35c7.19,0,14-.16,20.73.07,3.39.11,4.2-1.24,4.19-4.36,0-6.27.12-6.27-6.19-6.29h-6.42V535.47Z" transform="translate(-344 -389.76)"/>
    <path d="M422.57,472.11c4.14,3.68,7.94,7.11,11.79,10.47,2.25,2,3.51,4.35,1.42,6.84-2.37,2.83-4.9,1.56-7.26-.55-4.56-4.09-9.25-8-13.83-12.1-4-3.53-4-5.39-.26-8.85,4.4-4,8.87-8,13.34-11.9,2.46-2.17,5.3-4.45,8.05-1,2.39,3,.19,5.41-2.32,7.48C429.93,465.45,426.53,468.61,422.57,472.11Z" transform="translate(-344 -389.76)"/>
    <path d="M478.42,472.09c-4.07-3.58-7.6-6.82-11.3-9.88-2.43-2-4.11-4.35-2-7.17s4.93-1.76,7.28.33q7.44,6.58,14.88,13.16c2.68,2.37,2.67,4.89.11,7.21-5.28,4.77-10.53,9.61-16.15,13.95-1.25,1-4-.07-6.1-.19.25-2.06-.26-4.83.88-6.07C469.73,479.45,474,476,478.42,472.09Z" transform="translate(-344 -389.76)"/>
    <path d="M459.08,451.67c-3.46,14.88-6.52,28.54-10,42.09-.32,1.26-3.52,2.8-5,2.46s-3.19-3.25-2.9-4.62q4.34-20.52,9.52-40.86c.35-1.38,3.36-3.2,4.71-2.9C457,448.2,458.17,450.63,459.08,451.67Z" transform="translate(-344 -389.76)"/>
    <path d="M458.51,545.17c0,4.92-.33,9.21.08,13.43.49,5-1.76,6.53-6.23,6.18-1-.08-2-.14-3.66-.26,0-5.38-.7-10.85.2-16C449.78,543.45,454.54,545.58,458.51,545.17Z" transform="translate(-344 -389.76)"/>
  </g>
</svg>
