<svg width="66" height="74" viewBox="0 0 66 74" fill="none" xmlns="http://www.w3.org/2000/svg">
<g clip-path="url(#clip0_174_9)">
<path d="M29.5702 14.5699L35.5502 14.7299C36.9102 8.86994 40.5602 3.66994 46.0802 1.05994C47.3202 0.469938 50.4402 -0.930062 50.8702 1.29994C51.3002 3.52994 48.4002 3.76994 46.8002 4.63994C42.7702 6.81994 39.6502 11.0099 39.1702 15.6199C40.4602 16.4799 41.7602 17.0299 42.9802 18.0499C46.3702 20.8999 47.9502 24.7499 47.1502 29.1999C48.6402 29.9499 50.2502 30.3799 51.7602 31.0699C58.5202 34.1499 69.4702 41.7699 63.6802 50.2599C60.5202 54.8899 54.8502 56.7499 49.4602 55.5699C48.1202 62.5699 42.2902 67.6199 35.3702 68.7899C34.4402 70.1599 34.2902 72.4599 32.7802 73.2899C31.4302 73.4199 30.6802 69.6899 29.9702 68.7899C23.1002 67.6699 17.2002 62.4999 15.8902 55.5599C11.2402 56.3899 6.93022 55.5799 3.44022 52.3199C-7.14978 42.4599 9.39022 31.4499 18.3002 29.4299C16.8102 23.1799 20.8502 18.1499 26.2202 15.6199C25.6302 10.9499 22.6202 6.86994 18.5402 4.62994C17.1202 3.85994 12.8202 2.91994 14.9402 0.559938C15.9202 -0.540062 17.3202 0.219938 18.4202 0.679938C24.1302 3.05994 28.4902 8.44994 29.5802 14.5599L29.5702 14.5699ZM23.9802 31.6699C18.8602 31.9799 11.6102 35.3399 7.73022 38.6599C3.39022 42.3799 1.35022 46.3899 6.66022 50.5199C13.5902 55.8999 23.2502 48.9999 26.1502 42.2299C27.4402 39.2099 28.3102 35.1999 27.0302 32.0699C26.0602 31.5899 25.0102 31.6099 23.9802 31.6699ZM40.0402 31.6699C39.5302 31.7099 38.9302 31.8599 38.4102 31.9499C36.7302 35.5199 38.1802 40.6599 40.0502 43.9699C43.4102 49.9299 52.3202 55.4299 58.6602 50.5099C60.4702 49.0999 62.2402 46.9599 61.7902 44.5099C60.5802 37.9899 46.1102 31.1299 40.0502 31.6599L40.0402 31.6699ZM34.7602 39.8099C34.3802 39.3499 30.9302 39.3699 30.5602 39.8099C29.7702 43.4599 27.9502 46.8199 25.4702 49.5699C30.0502 50.5599 34.9802 50.6999 39.4902 49.3299L36.4502 44.6999L34.7602 39.7999V39.8099ZM20.2002 57.7199C24.8802 68.1099 40.9602 68.0699 45.1202 57.3599C37.0602 60.1699 28.3402 60.2499 20.2002 57.7199Z" fill="#F9D905"/>
</g>
<defs>
<clipPath id="clip0_174_9">
<rect width="65.3" height="73.31" fill="white"/>
</clipPath>
</defs>
</svg>
