<svg width="49" height="58" viewBox="0 0 49 58" fill="none" xmlns="http://www.w3.org/2000/svg">
<g clip-path="url(#clip0_175_97)">
<path d="M36.3991 57.6084C35.8824 58.1852 34.9668 58.1088 34.5225 57.4846C32.4507 53.3149 29.8184 49.2776 27.7802 45.1114C27.6271 44.7975 27.2821 44.2513 27.2265 43.9629C26.9589 42.5957 28.5326 41.9188 29.3859 42.9841L35.3573 54.0969C36.0036 53.7763 37.7876 48.3904 38.8227 47.7492C39.0482 47.6101 39.2687 47.549 39.5329 47.5405C40.3997 47.5151 45.2973 48.5092 45.5414 48.3277L40.0294 38.7042C39.5767 37.3777 41.1806 36.4176 42.0878 37.4778C44.03 41.1131 46.3458 44.5685 48.2645 48.2157C48.9243 49.4693 49.7708 50.7297 47.6468 51.0605L40.1556 50.1003L36.4008 57.6084H36.3991Z" fill="#F9D905"/>
<path d="M3.29706 48.1616L11.2023 47.7426C11.9815 48.07 13.3532 52.4805 13.8834 53.5204C13.9726 53.6951 13.7942 53.8427 14.2318 53.7613L19.2068 43.7596C20.4001 42.5043 21.8021 43.6883 21.1709 45.232C19.5131 48.104 18.2206 51.1727 16.6789 54.1039C16.0528 55.2931 14.3782 59.6951 12.8517 57.2744L9.86765 50.1073L1.20673 50.7062C-0.849947 50.1379 0.198586 48.7859 0.849922 47.4814C2.59355 43.9886 4.69398 40.6536 6.41405 37.1438C7.34982 36.0056 8.95712 36.8741 8.60705 38.1565L3.29538 48.1633L3.29706 48.1616Z" fill="#F9D905"/>
<path d="M41.7207 13.2502C41.0037 10.3664 41.5473 7.17384 38.4758 5.49445C36.2575 4.28156 33.8474 4.7277 31.6915 3.85068C28.9818 2.74636 27.5663 -0.354575 23.9596 0.0321934C21.0816 0.34093 19.7133 2.80912 17.4344 3.80149C14.9351 4.88885 11.4933 4.11192 9.34911 6.33923C7.57855 8.17638 7.85289 10.972 7.2857 13.2502C6.39369 16.8431 2.1255 18.5852 3.41808 23.0178C4.17713 25.6217 6.61417 27.0941 7.2857 29.8066C7.77378 31.776 7.60716 33.8778 8.64728 35.7285C10.4532 38.9397 14.3898 38.0237 17.2139 39.1382C19.2134 39.9287 20.7955 42.1289 23.0204 42.7871C26.3848 43.7828 28.1369 41.3774 30.6093 39.8117C34.1201 37.5877 39.2231 39.5436 40.8775 34.5547C41.3841 33.0246 41.3403 31.3469 41.7224 29.8083C42.3989 27.0755 44.8915 25.5911 45.6287 22.8889C46.8035 18.5835 42.5975 16.7735 41.7224 13.2536L41.7207 13.2502ZM39.903 27.6352C38.9958 29.7302 39.2668 33.7743 37.7201 35.1043C36.2727 36.3477 32.8628 36.1136 30.9021 36.8838C28.8303 37.6963 26.6895 40.5004 24.5907 40.5394C22.3876 40.5818 20.4706 37.9525 18.4426 37.0517C16.3758 36.134 12.8953 36.3782 11.3721 35.1874C9.73957 33.9118 10.0139 29.7353 9.10338 27.6352C8.30394 25.7896 5.61949 23.4928 5.54376 21.5894C5.46802 19.6641 8.49749 16.9652 9.26832 14.9109C9.98193 13.0093 9.83551 9.39606 11.0355 8.04068C12.1278 6.80743 16.152 6.85492 17.936 6.17469C19.9455 5.40963 22.4768 2.5428 24.2979 2.39521C26.2384 2.23915 29.0222 5.39436 31.067 6.17469C32.8511 6.85492 36.8752 6.80743 37.9675 8.04068C39.1675 9.39606 39.0211 13.0093 39.7347 14.9109C40.5055 16.9652 43.535 19.6641 43.4593 21.5894C43.3852 23.4928 40.6991 25.7896 39.8996 27.6352H39.903Z" fill="#F9D905"/>
<path d="M22.785 6.99079C13.8076 7.8678 8.02809 17.3046 10.6587 25.9C14.3227 37.8746 30.7121 39.7847 36.9865 28.9382C43.1009 18.3699 34.7396 5.8237 22.785 6.99079ZM25.0907 33.7406C9.46877 34.4259 8.00284 10.9365 23.1216 9.36568C39.7399 7.6388 41.2597 33.0315 25.0907 33.7406Z" fill="#F9D905"/>
<path d="M30.6871 16.1258C31.6868 15.9409 32.4559 17.1895 31.8871 18.0291L24.5086 25.5185C23.9953 25.9698 23.3187 26.2395 22.7364 25.7696C22.1069 24.7942 18.3723 21.8409 18.1417 21.0673C17.8 19.9274 18.6937 19.2149 19.8029 19.5677C20.5905 19.8188 23.1067 23.1199 23.556 23.0419C25.2441 21.4015 26.8699 19.7034 28.5479 18.0546C29.031 17.5796 29.9768 16.2565 30.6871 16.1258Z" fill="#F9D905"/>
</g>
<defs>
<clipPath id="clip0_175_97">
<rect width="49" height="58" fill="white"/>
</clipPath>
</defs>
</svg>
