<svg width="23" height="22" viewBox="0 0 23 22" fill="none" xmlns="http://www.w3.org/2000/svg">
<path d="M16.9773 1.34883L17.0178 1.39809C25.0104 5.66683 25.0013 16.9453 16.9467 21.2048C16.4635 21.4604 15.4519 22.0082 14.898 21.9999C14.2373 21.99 14.3284 21.2587 14.3366 20.7899C14.3519 19.9188 14.4213 19.0202 14.3733 18.1451C14.3376 17.4945 14.1418 16.7357 13.6239 16.2954C13.7606 16.1833 13.9513 16.2302 14.1091 16.2051C16.6563 15.7952 18.3208 14.6903 18.7323 12.0713C18.9727 10.5416 18.9132 9.23667 17.9431 7.96352C17.8764 7.87624 17.7149 7.77012 17.7057 7.66334C17.7662 7.31058 17.8866 6.96907 17.9097 6.60971C17.9414 6.11645 17.8121 5.23738 17.6091 4.78313C17.5972 4.75701 17.5292 4.64527 17.5102 4.64064C17.1161 4.62179 16.7172 4.70411 16.3442 4.82313C15.6393 5.04794 15.0116 5.44566 14.3842 5.82188C12.513 5.34548 10.5057 5.34251 8.64093 5.82783C8.39848 5.66782 8.15841 5.54087 7.90168 5.40102C7.88298 5.39078 7.8789 5.35441 7.84898 5.33854C7.15325 4.97223 6.3205 4.61518 5.51936 4.64593C5.43741 4.67205 5.30072 5.10117 5.27351 5.20035C5.15654 5.6265 5.09703 6.19315 5.12322 6.64045C5.14294 6.9813 5.22319 7.34563 5.35546 7.66102C5.05283 7.99758 4.76447 8.37545 4.57269 8.78408C3.73075 10.5793 4.18267 13.5682 5.72815 14.9207C6.71868 15.7879 8.07068 16.1261 9.37337 16.2451C9.38596 16.2934 9.37405 16.2871 9.35263 16.3112C9.18397 16.4997 9.07584 16.6177 8.95819 16.8504C8.9388 16.8885 8.87182 17.0157 8.86569 17.031C8.76946 17.2723 8.7426 17.5368 8.65861 17.7818C8.17507 17.988 7.64393 18.1084 7.11245 18.0628C6.78839 18.035 6.35348 17.868 6.08825 17.6862C5.38981 17.2075 5.15382 16.253 4.34724 15.8844C3.9817 15.7175 3.41078 15.5512 3.06563 15.815C2.91466 16.1178 3.61106 16.4263 3.80386 16.5757C4.56079 17.1622 4.63152 18.1563 5.29188 18.7752C5.89035 19.3359 6.74589 19.5055 7.55518 19.5191L8.6093 19.3842C8.64705 19.6311 8.61441 19.8831 8.62393 20.131C8.63889 20.5271 8.7596 21.4604 8.55252 21.7777C8.43894 21.952 8.26824 22.0012 8.06422 21.9996C7.394 21.9943 5.52684 20.9668 4.93245 20.5624C2.62528 18.9931 0.947866 16.5582 0.317772 13.8912C-1.91935 4.41781 8.08054 -3.19067 16.9773 1.34883Z" fill="white"/>
</svg>
