<svg width="24" height="22" viewBox="0 0 24 22" fill="none" xmlns="http://www.w3.org/2000/svg">
<path d="M13.4207 1.08386C12.4956 0.972016 11.5022 0.972205 10.5811 1.08348C10.5726 1.08442 10.5643 1.08592 10.5557 1.08705C10.5509 1.08799 10.5459 1.08799 10.5414 1.08912C7.79586 1.41694 5.30587 2.6701 3.52657 4.6216C3.52223 4.62649 3.51809 4.63156 3.51375 4.63626C3.51354 4.63645 3.51334 4.63664 3.51334 4.63683C1.89277 6.42217 1 8.68078 1 10.9997C1 16.5133 5.93367 20.999 11.9984 21H11.9988H12C13.3787 21 14.698 20.766 15.9152 20.3431C15.9462 20.3365 15.9758 20.3258 16.0037 20.3113C20.0946 18.8525 23 15.2298 23 10.9996C23 8.67446 22.1027 6.40908 20.4732 4.62084C18.6854 2.66034 16.1801 1.40379 13.4203 1.08365L13.4207 1.08386ZM10.2205 1.74628L10.1744 1.9989C10.0944 2.43781 10.2391 2.8769 10.5714 3.20339C10.9036 3.52989 11.3748 3.69759 11.8611 3.65621C12.144 3.63422 12.4224 3.73441 12.611 3.92425L12.8906 4.20602C13.0584 4.37463 13.2708 4.50583 13.505 4.58609L14.8142 5.03233C15.1597 5.15018 15.3917 5.44153 15.4051 5.7752C15.4208 6.1579 15.3857 6.80208 14.9823 6.86391C14.8892 6.86015 14.4521 6.8314 13.9063 6.6188C13.3096 6.38741 12.624 6.51354 12.1605 6.94173C11.7027 7.36485 11.5809 7.95807 11.8425 8.48888C11.9684 8.74508 12.1733 8.96143 12.428 9.11631C12.4497 9.13192 12.9668 9.50785 13.7922 9.77479C14.1788 9.8996 14.4871 10.1519 14.6384 10.4663C14.9014 11.0133 15.6449 11.88 17.6657 11.5338C18.1843 11.4462 18.7179 11.621 19.062 11.9913C19.379 12.3323 19.4929 12.7821 19.3668 13.1947C19.1701 13.8368 18.7384 14.097 18.0108 14.0127C17.6968 13.9255 15.25 13.296 14.4147 14.5526C14.3864 14.6047 13.7264 15.8408 14.3729 16.9492C14.5216 17.2041 14.5776 17.5005 14.5307 17.7847C14.386 18.6612 14.6182 19.4042 15.1777 19.9379C14.196 20.227 13.151 20.3866 12.0664 20.3928C11.2679 20.1151 11.0425 19.1704 10.9813 18.6234C10.9567 18.4039 11.0886 18.1937 11.309 18.1005L11.5832 17.9845C11.969 17.8212 12.2349 17.4939 12.2945 17.1088C12.3515 16.7394 12.2035 16.3757 11.8977 16.1349C11.8739 16.1165 11.8503 16.099 11.8262 16.0825C11.718 16.0079 11.6498 15.8785 11.6392 15.727C11.5828 14.9428 11.1072 14.3767 10.3005 14.1331C9.98518 14.0381 9.81212 13.7291 9.91447 13.4447C10.0979 12.9353 9.87518 12.384 9.37299 12.1038L7.54378 11.0833C7.24191 10.9152 6.87284 10.8667 6.53085 10.9498L5.16129 11.2836C4.75439 11.3821 4.32144 11.2724 4.03054 10.9962C3.66665 10.6506 3.6071 10.125 3.88539 9.719L4.26335 9.1673C4.50091 8.82069 4.52283 8.37895 4.32062 8.01488C4.22261 7.83762 4.2315 7.63105 4.34419 7.46169L4.73331 6.87636C4.98349 6.50061 4.98349 6.03349 4.73372 5.65777L4.19447 4.84652C5.76295 3.20236 7.87986 2.113 10.2205 1.74628ZM1.66697 10.9997C1.66697 8.95897 2.40302 6.96801 3.74739 5.34564L4.16339 5.9714C4.28455 6.15373 4.28455 6.38041 4.16298 6.56274L3.77386 7.14807C3.54167 7.49694 3.52347 7.9229 3.72527 8.28736C3.82348 8.46424 3.81293 8.67852 3.69756 8.84675L3.31961 9.39845C2.88004 10.0398 2.97433 10.8693 3.5487 11.4153C4.00811 11.8516 4.69188 12.0253 5.33387 11.8691L6.70323 11.5353C6.86946 11.4945 7.04892 11.5187 7.19511 11.6001L9.02411 12.6206C9.2623 12.7535 9.36795 13.0148 9.2809 13.2563C9.06464 13.857 9.42791 14.5087 10.0906 14.7086C10.6457 14.876 10.9348 15.2223 10.9739 15.7664C10.9972 16.0937 11.1614 16.385 11.4232 16.5651L11.4622 16.5939C11.5973 16.7005 11.6601 16.8572 11.6343 17.0245C11.6064 17.2053 11.4823 17.3587 11.3022 17.4347L11.0276 17.551C10.55 17.7531 10.2649 18.2089 10.3183 18.6848C10.396 19.3799 10.6174 19.9397 10.9546 20.3465C5.74621 19.8681 1.66697 15.8592 1.66697 10.9997ZM15.8882 19.7017C15.1572 19.1974 15.0972 18.4395 15.1904 17.8747C15.2584 17.4634 15.1774 17.0339 14.9624 16.6651C14.481 15.8401 15.0008 14.8442 14.9992 14.8442C15.4884 14.1094 17.2143 14.4177 17.838 14.5984C17.856 14.6036 17.8748 14.6076 17.8936 14.6098C18.97 14.7448 19.7213 14.3006 20.0096 13.3568C20.1948 12.7514 20.0311 12.0945 19.5717 11.6001C19.0728 11.0632 18.2945 10.8087 17.5432 10.9384C16.3479 11.142 15.5759 10.9023 15.2498 10.2237C15.0249 9.75608 14.5752 9.3841 14.0159 9.20365C13.3034 8.97339 12.8512 8.64763 12.8241 8.6292C12.6486 8.52168 12.5268 8.3948 12.4513 8.24161C12.3023 7.9386 12.3713 7.61191 12.6362 7.36678C12.8508 7.16885 13.2277 7.01453 13.6446 7.17619C14.3922 7.46735 14.9765 7.47073 15.0011 7.47073C15.0137 7.47073 15.0263 7.47017 15.0389 7.46867C15.4491 7.42637 16.1286 7.14668 16.0719 5.7529C16.0486 5.17469 15.647 4.66924 15.0489 4.46493L13.7397 4.01869C13.6047 3.97283 13.4823 3.89708 13.386 3.80008L13.1064 3.51832C12.7783 3.18843 12.2916 3.01383 11.8039 3.05272C11.5235 3.07339 11.2526 2.97997 11.0612 2.792C10.8697 2.60403 10.7864 2.35103 10.8325 2.0984L10.9119 1.66307C11.2692 1.62792 11.6331 1.60555 12.0007 1.60555C12.4516 1.60555 12.8999 1.63224 13.3351 1.68487C15.9281 1.98581 18.2812 3.16605 19.9609 5.00798C21.4913 6.68746 22.3343 8.81566 22.3343 10.9999C22.3343 14.9301 19.6646 18.3021 15.8885 19.7019L15.8882 19.7017Z" fill="white" stroke="white" stroke-width="0.5"/>
</svg>
