<svg width="23" height="22" viewBox="0 0 23 22" fill="none" xmlns="http://www.w3.org/2000/svg">
<path d="M1.4526 20.7082C0.257907 19.6042 0.127643 18.3854 0.0626751 16.8742C-0.101386 13.06 0.119112 9.17698 0.0285505 5.35206C0.0823624 3.72039 0.242486 2.29527 1.57171 1.14669C2.65647 0.209688 3.87643 0.0439465 5.29523 0H17.7012C19.1748 0.0436326 20.3731 0.18897 21.5067 1.16176C22.6404 2.13455 22.9813 3.46958 23 4.88121V17.0321C22.9426 18.6531 22.623 19.9803 21.2242 21.0146C20.128 21.8251 18.8808 21.9359 17.5368 21.9758C13.4973 21.8973 9.4289 22.0907 5.39629 21.9419C3.84132 21.8844 2.62826 21.7943 1.4526 20.7079V20.7082ZM5.12756 7.0845C6.60345 8.412 8.8688 6.40333 7.51037 4.8834C6.01644 3.21186 3.42953 5.55673 5.12756 7.0845ZM15.616 12.5106V17.5959L18.4657 17.5912L18.4719 11.913C18.3928 8.80563 14.5131 7.52208 12.2478 9.61802C12.1303 9.72663 12.0421 9.88766 11.9082 9.98371V8.80657L11.859 8.75949H9.2504V17.6116L12.0722 17.5959V12.6362C12.0722 12.5627 12.2389 12.1139 12.2842 12.0228C12.9664 10.6495 15.4532 10.8247 15.616 12.5106ZM7.70823 17.6116V8.80657L7.65901 8.75949H4.83717L4.79845 17.5592L4.86867 17.6304L7.70823 17.6116Z" fill="white"/>
</svg>
