<svg width="33" height="22" viewBox="0 0 33 22" fill="none" xmlns="http://www.w3.org/2000/svg">
<path d="M12.5602 11.9039L0.281262 20.5744C0.265097 20.4957 0.257161 20.4153 0.257749 20.3352V1.49868C0.253928 1.44883 0.253928 1.39898 0.257749 1.34912L12.5602 11.9039Z" fill="white"/>
<path d="M19.4017 12.9174L31.8229 21.7556C31.6715 21.8049 31.5137 21.8301 31.355 21.8304H1.73916C1.56428 21.8301 1.39086 21.799 1.22656 21.7375L13.665 12.9175L15.0662 14.1735C15.4741 14.5468 16.005 14.7536 16.5557 14.7536C17.1063 14.7536 17.6374 14.5468 18.0453 14.1735L19.4017 12.9174Z" fill="white"/>
<path d="M16.0462 13.061L1.14648 0.126772C1.33371 0.045469 1.53534 0.00392399 1.73903 0.00422024H31.3548C31.5232 0.00362674 31.6908 0.0330029 31.8492 0.0908631L17.0413 13.0615V13.0612C16.7585 13.3185 16.3291 13.3185 16.0464 13.0612L16.0462 13.061Z" fill="white"/>
<path d="M32.8347 1.49944V20.3359C32.8336 20.4362 32.8236 20.5362 32.8051 20.6348L20.5088 11.9013L32.8111 1.23004C32.8267 1.31877 32.8346 1.40897 32.8349 1.49918L32.8347 1.49944Z" fill="white"/>
</svg>
