<svg width="56" height="50" viewBox="0 0 56 50" fill="none" xmlns="http://www.w3.org/2000/svg">
<g clip-path="url(#clip0_175_152)">
<path d="M4.35112 0L22.7807 0.0198639C24.5781 0.445697 25.4338 1.9566 26.3829 3.37563C26.8787 4.11804 27.7082 5.83131 28.2451 6.3577C28.5515 6.65814 29.0285 6.80464 29.4371 6.9052L52.3047 6.91141C54.3412 7.07032 55.6902 8.08338 55.8484 10.2001C55.5818 22.229 56.1286 34.3199 55.9717 46.3264C55.9517 47.8535 55.1147 49.3644 53.5826 49.7865C37.217 49.9553 20.8127 49.856 4.43333 49.8659C4.07709 49.8659 3.77442 50.005 3.45181 50C1.70177 49.9752 0.440002 48.5723 0.183413 46.9223C-0.182788 32.886 0.13359 18.795 0.0214875 4.73879C0.213307 2.13786 1.61707 0.189949 4.35112 0ZM5.71129 11.6626C4.35112 11.9891 3.56765 13.1909 3.50164 14.5466V43.6063C3.57513 45.2923 4.88797 46.4717 6.54708 46.5238H49.4448C50.7265 46.458 51.8874 45.7628 52.276 44.5101L52.3657 14.0488C52.2598 12.734 51.1289 11.6763 49.8173 11.6279L5.71005 11.6614L5.71129 11.6626Z" fill="#F9D905"/>
<path d="M24.3636 20.2352L43.2092 20.2153C46.784 20.5853 46.8637 25.3452 43.3474 25.7859L24.2178 25.7735C20.795 25.262 20.9108 20.553 24.3636 20.2352Z" fill="#F9D905"/>
<path d="M24.3637 31.1605L43.2093 31.1406C46.7816 31.5156 46.8638 36.2742 43.3476 36.7112L24.2179 36.6988C20.7777 36.1972 20.9221 31.4733 24.3637 31.1605Z" fill="#F9D905"/>
<path d="M13.6701 20.1086C18.2563 19.4605 18.2887 26.6885 13.5431 25.8815C10.4428 25.3539 10.5761 20.5468 13.6701 20.1086Z" fill="#F9D905"/>
<path d="M13.6701 31.0339C18.2563 30.3858 18.2887 37.6138 13.5431 36.8068C10.4428 36.2792 10.5761 31.4721 13.6701 31.0339Z" fill="#F9D905"/>
</g>
<defs>
<clipPath id="clip0_175_152">
<rect width="56" height="50" fill="white"/>
</clipPath>
</defs>
</svg>
