<svg width="56" height="65" viewBox="0 0 56 65" fill="none" xmlns="http://www.w3.org/2000/svg">
<g clip-path="url(#clip0_175_148)">
<path d="M55.9752 9.30997L56.0015 38.5357C55.2958 50.4372 47.1002 60.8355 35.5016 63.9872C18.0796 68.7219 1.05124 56.3096 0 38.5342L0.0262445 9.30997L28.0598 0L55.9752 9.30997ZM50.7132 13.238L27.9388 5.23541L5.28682 13.238L5.24891 38.9695C8.30639 66.3669 47.3364 66.6194 50.7263 39.2351L50.7132 13.238Z" fill="#F9D905"/>
<path d="M43.4026 22.8396C43.5017 22.8962 44.0791 23.4824 44.1622 23.6072C44.8635 24.6606 44.7177 25.8737 43.9566 26.843C38.5386 31.7418 33.6702 37.5649 28.2959 42.4535C26.9516 43.6767 25.8654 44.395 24.1405 43.0963C21.3528 40.0505 17.9964 37.2863 15.2349 34.255C14.8675 33.8516 14.0539 32.9926 13.9256 32.5123C13.2097 29.8177 16.1549 27.9429 18.2326 29.822L25.5884 37.16L26.0024 37.2805L40.4646 22.9295C41.3628 22.3738 42.4855 22.3114 43.4011 22.8396H43.4026Z" fill="#F9D905"/>
</g>
<defs>
<clipPath id="clip0_175_148">
<rect width="56" height="65" fill="white"/>
</clipPath>
</defs>
</svg>
