<svg width="61" height="61" viewBox="0 0 61 61" fill="none" xmlns="http://www.w3.org/2000/svg">
<g clip-path="url(#clip0_174_3)">
<path d="M44.9366 0.0121829L46.0005 5.76808L48.1566 6.51421L52.8407 3.23001L57.4946 7.82548L57.4906 8.21162C56.8872 9.39015 54.868 11.341 54.4758 12.4451C54.2163 13.1711 54.9122 14.1063 55.1013 14.8605L60.98 15.854L61.0001 22.5289C60.8734 23.074 55.5417 23.3213 55.0751 23.8643C54.8519 24.1238 54.3451 25.6985 54.4537 26.0766C54.7332 27.054 57.0783 29.2341 57.4846 30.294C57.5429 30.4448 57.6294 30.5715 57.561 30.7425L53.1283 35.2514C52.358 35.6114 48.9409 32.289 47.8911 32.1301L45.8477 33.0854L44.9406 38.6945L38.2574 38.6784C38.0744 38.6422 38.0281 38.5216 37.9698 38.3647C37.6641 37.5462 37.3242 33.186 37.103 32.9145L34.8524 32.1181C34.0761 32.5867 30.6691 35.4284 30.0517 35.2675L25.3836 30.6821L28.67 25.8031L27.6965 23.7698L22.1134 22.6335L22.0752 15.9585L27.8092 14.8464C27.9379 14.2772 28.499 13.515 28.6217 13.0364C28.8369 12.2017 25.7617 9.08445 25.5264 7.95017L30.114 3.29437C30.2628 3.16163 30.3614 3.25214 30.5002 3.29839C31.2865 3.56587 34.4884 6.54639 35.0214 6.5484L37.0909 5.47445L37.9316 -0.00390625L44.9406 0.00816061L44.9366 0.0121829ZM42.5131 2.83583L40.337 2.80968L39.5365 7.72492C38.4585 8.01452 37.4167 8.36044 36.387 8.7868C35.6328 9.09853 35.2044 9.83461 34.3295 9.52489C33.7241 9.3097 30.6671 6.57454 30.3131 6.82192C30.2548 7.68067 29.1185 7.64246 29.1526 8.48714L31.916 12.5316C31.0492 14.0399 30.2648 15.5985 29.929 17.3261L24.8849 18.382L24.8949 20.4534L30.0054 21.459C30.3191 23.0961 30.9386 24.6226 31.8718 26.0042L29.1345 30.3503C29.4905 30.7304 30.2347 31.8023 30.7676 31.6595L34.784 28.9063C36.1798 29.8596 37.7586 30.485 39.3998 30.8651L40.4496 35.9031L42.5131 35.8689L43.6273 30.8651C44.4117 30.5454 45.2725 30.4126 46.0528 30.0828C46.6582 29.8274 47.694 29.0672 48.1566 28.9566C48.7901 28.8057 51.5998 31.4202 52.4726 31.6877L53.9468 30.2176C53.5667 29.3467 51.097 26.6981 51.1593 25.9841C51.1734 25.8232 52.3178 23.6572 52.5209 23.1142C52.724 22.5712 52.8487 21.9759 52.9634 21.3967C53.255 20.9039 57.1185 20.7994 57.8446 20.4152C58.464 20.0874 58.1221 18.8968 58.1643 18.2693L53.0076 17.4106C52.6677 15.7051 52.0583 14.0701 51.0507 12.6462L53.8825 8.21966L52.36 6.89834L48.2591 9.76221L43.384 7.48358L42.5151 2.83583H42.5131Z" fill="#F9D905"/>
<path d="M13.7628 55.3488C12.6747 55.214 10.9189 54.3311 10.0702 53.6272C6.17848 50.3973 7.30878 43.5293 6.00552 39.0424C3.69665 37.1881 -0.351917 37.1238 0.0261902 33.188C0.265524 30.6881 4.87924 25.2218 5.88082 22.3982C6.42787 20.8577 6.50028 18.6937 6.90453 17.0043C8.51149 10.2851 12.2403 4.71823 18.7425 1.97101C20.2087 1.35158 23.9153 0.118745 25.3916 0.406338C26.4495 0.611475 26.6124 2.30486 25.6852 2.89613C25.0517 3.30037 21.7774 3.76093 20.5787 4.20539C12.0713 7.36489 9.64782 15.1661 8.5497 23.4621L2.87809 33.2322L2.86803 34.2619L8.54165 37.1097L10.4463 49.444C10.6373 50.6186 12.8919 52.5432 13.9659 52.5432H22.0872V60.9659C21.1962 60.8412 19.9754 61.2796 19.2795 60.6642V55.3508C17.5378 55.1959 15.4622 55.562 13.7648 55.3508L13.7628 55.3488Z" fill="#F9D905"/>
<path d="M44.3452 60.9637V49.6329C44.3452 47.2638 47.0805 40.3777 48.7478 38.6501C49.6548 37.7109 51.1934 38.2861 51.1873 39.6054C51.1833 40.4822 50.3366 41.2103 49.9263 41.9765C48.8483 43.9836 47.8146 46.22 47.4123 48.4866C46.7245 52.3641 47.4103 56.68 47.1247 60.6319C46.9176 61.2634 44.9345 60.8431 44.3452 60.9597V60.9637Z" fill="#F9D905"/>
<path d="M46.2397 24.355C39.3232 30.9515 29.7217 19.8098 37.2295 13.8427C43.9067 8.53732 52.6857 18.2049 46.2397 24.355ZM40.4837 15.2907C36.1213 16.0369 36.3345 23.3816 41.439 23.4801C47.2775 23.5907 46.9356 14.1866 40.4837 15.2907Z" fill="#F9D905"/>
</g>
<defs>
<clipPath id="clip0_174_3">
<rect width="61" height="61" fill="white"/>
</clipPath>
</defs>
</svg>
